<?xml version="1.0" encoding="UTF-8" standalone="no"?>
<!-- Created with Inkscape (http://www.inkscape.org/) -->

<svg
   width="210mm"
   height="297mm"
   viewBox="0 0 210 297"
   version="1.1"
   id="svg1"
   inkscape:export-filename="fig1_23.png"
   inkscape:export-xdpi="384"
   inkscape:export-ydpi="384"
   inkscape:version="1.3 (0e150ed, 2023-07-21)"
   sodipodi:docname="fig1_23.svg"
   xmlns:inkscape="http://www.inkscape.org/namespaces/inkscape"
   xmlns:sodipodi="http://sodipodi.sourceforge.net/DTD/sodipodi-0.dtd"
   xmlns="http://www.w3.org/2000/svg"
   xmlns:svg="http://www.w3.org/2000/svg"
   xmlns:ns1="http://www.iki.fi/pav/software/textext/">
  <sodipodi:namedview
     id="namedview1"
     pagecolor="#ffffff"
     bordercolor="#999999"
     borderopacity="1"
     inkscape:showpageshadow="2"
     inkscape:pageopacity="0"
     inkscape:pagecheckerboard="0"
     inkscape:deskcolor="#d1d1d1"
     inkscape:document-units="mm"
     inkscape:zoom="3.3983771"
     inkscape:cx="281.45787"
     inkscape:cy="199.35986"
     inkscape:window-width="1920"
     inkscape:window-height="1080"
     inkscape:window-x="576"
     inkscape:window-y="35"
     inkscape:window-maximized="0"
     inkscape:current-layer="g9471" />
  <defs
     id="defs1">
    <marker
       style="overflow:visible"
       id="marker3"
       refX="0"
       refY="0"
       orient="auto-start-reverse"
       inkscape:stockid="Dart arrow"
       markerWidth="1"
       markerHeight="1"
       viewBox="0 0 1 1"
       inkscape:isstock="true"
       inkscape:collect="always"
       preserveAspectRatio="xMidYMid">
      <path
         style="fill:context-stroke;fill-rule:evenodd;stroke:none"
         d="M 0,0 5,-5 -12.5,0 5,5 Z"
         transform="scale(-0.5)"
         id="path3" />
    </marker>
    <marker
       style="overflow:visible"
       id="DartArrow"
       refX="0"
       refY="0"
       orient="auto-start-reverse"
       inkscape:stockid="Dart arrow"
       markerWidth="1"
       markerHeight="1"
       viewBox="0 0 1 1"
       inkscape:isstock="true"
       inkscape:collect="always"
       preserveAspectRatio="xMidYMid">
      <path
         style="fill:context-stroke;fill-rule:evenodd;stroke:none"
         d="M 0,0 5,-5 -12.5,0 5,5 Z"
         transform="scale(-0.5)"
         id="path6" />
    </marker>
    <marker
       style="overflow:visible"
       id="DartArrow-2"
       refX="0"
       refY="0"
       orient="auto-start-reverse"
       inkscape:stockid="Dart arrow"
       markerWidth="1"
       markerHeight="1"
       viewBox="0 0 1 1"
       inkscape:isstock="true"
       inkscape:collect="always"
       preserveAspectRatio="xMidYMid">
      <path
         style="fill:context-stroke;fill-rule:evenodd;stroke:none"
         d="M 0,0 5,-5 -12.5,0 5,5 Z"
         transform="scale(-0.5)"
         id="path6-0" />
    </marker>
  </defs>
  <g
     inkscape:label="Layer 1"
     inkscape:groupmode="layer"
     id="layer1">
    <path
       style="fill:#000000;stroke:#000000;stroke-width:0.26458333;stroke-linecap:round;stroke-linejoin:round;stroke-dasharray:none;stroke-dashoffset:7.23983;marker-end:url(#DartArrow);paint-order:stroke markers fill"
       d="M 81.084685,66.15021 103.47969,35.611572"
       id="path1"
       sodipodi:nodetypes="cc" />
    <path
       style="fill:#000000;stroke:#000000;stroke-width:0.26458333;stroke-linecap:round;stroke-linejoin:round;stroke-dasharray:none;stroke-dashoffset:7.23983;marker-end:url(#DartArrow-2);paint-order:stroke markers fill"
       d="M 79.260581,66.428987 48.723957,44.035455"
       id="path1-4"
       sodipodi:nodetypes="cc" />
    <path
       style="fill:#000000;stroke:#000000;stroke-width:0.26458333;stroke-linecap:round;stroke-linejoin:round;stroke-dasharray:none;stroke-dashoffset:7.23983;marker-end:url(#marker3);paint-order:stroke markers fill"
       d="m 81.58508,67.200264 37.83399,0.134925"
       id="path2" />
    <path
       style="fill:none;stroke:#000000;stroke-width:0.1984375;stroke-linecap:round;stroke-linejoin:round;stroke-dasharray:none;stroke-dashoffset:7.23983;paint-order:stroke markers fill"
       id="path8"
       sodipodi:type="arc"
       sodipodi:cx="80.313828"
       sodipodi:cy="67.20137"
       sodipodi:rx="1.2248989"
       sodipodi:ry="1.2248989"
       sodipodi:start="0.047746598"
       sodipodi:end="0.011696859"
       sodipodi:open="true"
       sodipodi:arc-type="arc"
       d="m 81.53733,67.259833 a 1.2248989,1.2248989 0 0 1 -1.270936,1.165517 1.2248989,1.2248989 0 0 1 -1.176924,-1.260381 1.2248989,1.2248989 0 0 1 1.249722,-1.188235 1.2248989,1.2248989 0 0 1 1.199451,1.238963" />
    <path
       style="fill:none;stroke:#000000;stroke-width:0.13229167;stroke-linecap:butt;stroke-linejoin:round;stroke-dasharray:none;stroke-dashoffset:7.23983;paint-order:stroke markers fill"
       d="m 79.450641,66.302959 1.726318,1.800084"
       id="path9" />
    <path
       style="fill:none;stroke:#000000;stroke-width:0.13229167;stroke-linecap:square;stroke-linejoin:round;stroke-dasharray:none;stroke-dashoffset:7.23983;paint-order:stroke markers fill"
       d="m 81.080591,66.35288 -1.533534,1.70348"
       id="path10" />
    <path
       style="fill:none;stroke:#000000;stroke-width:0.13229167;stroke-linecap:butt;stroke-linejoin:round;stroke-dasharray:none;stroke-dashoffset:7.23983;paint-order:stroke markers fill"
       d="m 78.259206,65.695001 1.509342,-2.055752 2.054252,1.508244"
       id="path258" />
    <g
       transform="matrix(0.352778 0 0 0.352778 81.0717 54.3081)"
       ns1:version="1.9.0"
       ns1:texconverter="pdflatex"
       ns1:pdfconverter="inkscape"
       ns1:text="\\textbf{b}"
       ns1:preamble="/Users/junseo/Library/Application Support/org.inkscape.Inkscape/config/inkscape/extensions/textext/default_packages.tex"
       ns1:scale="1.0"
       ns1:alignment="middle center"
       ns1:stroke-to-path="0"
       id="g9471"
       ns1:jacobian_sqrt="0.352778">
      <defs
         id="id-61a34734-6520-4c39-ac3c-e959a341a9f0">
        <g
           id="id-c42228b9-026e-40ab-b0b2-735a91732759">
          <g
             id="id-0a239494-0124-46ab-bb0d-45df15bea4b3">
            <path
               d="M 2.140625,-4 V -6.921875 L 0.375,-6.84375 V -6.375 c 0.609375,0 0.6875,0 0.6875,0.390625 V 0 h 0.46875 l 0.484375,-0.5625 c 0.078125,0.078125 0.5625,0.625 1.453125,0.625 1.484375,0 2.515625,-0.90625 2.515625,-2.28125 0,-1.328125 -0.9375,-2.265625 -2.390625,-2.265625 C 2.875,-4.484375 2.375,-4.203125 2.140625,-4 Z M 2.1875,-0.984375 v -2.5 C 2.46875,-3.84375 2.9375,-4.125 3.484375,-4.125 c 1.21875,0 1.21875,1.203125 1.21875,1.90625 0,0.46875 0,1.015625 -0.25,1.40625 -0.296875,0.40625 -0.75,0.515625 -1.078125,0.515625 -0.6875,0 -1.078125,-0.546875 -1.1875,-0.6875 z m 0,0"
               id="id-07c6c30e-5fdb-4150-81aa-7f61f27a66a5" />
          </g>
        </g>
      </defs>
      <g
         fill="#000000"
         fill-opacity="1"
         id="id-55193716-2f56-4fdf-ae01-b067763f3a4c"
         transform="translate(-124.43567,-147.59903)">
        <g
           transform="translate(148.712,134.765)"
           id="g3313">
          <path
             d="M 2.140625,-4 V -6.921875 L 0.375,-6.84375 V -6.375 c 0.609375,0 0.6875,0 0.6875,0.390625 V 0 h 0.46875 l 0.484375,-0.5625 c 0.078125,0.078125 0.5625,0.625 1.453125,0.625 1.484375,0 2.515625,-0.90625 2.515625,-2.28125 0,-1.328125 -0.9375,-2.265625 -2.390625,-2.265625 C 2.875,-4.484375 2.375,-4.203125 2.140625,-4 Z M 2.1875,-0.984375 v -2.5 C 2.46875,-3.84375 2.9375,-4.125 3.484375,-4.125 c 1.21875,0 1.21875,1.203125 1.21875,1.90625 0,0.46875 0,1.015625 -0.25,1.40625 -0.296875,0.40625 -0.75,0.515625 -1.078125,0.515625 -0.6875,0 -1.078125,-0.546875 -1.1875,-0.6875 z m 0,0"
             id="id-255ad6d6-fde9-447e-a998-23ff3140d065" />
        </g>
      </g>
      <g
         transform="translate(60.775437,29.474289)"
         ns1:version="1.9.0"
         ns1:texconverter="pdflatex"
         ns1:pdfconverter="inkscape"
         ns1:text="\\textbf{v}"
         ns1:preamble="/Users/junseo/Library/Application Support/org.inkscape.Inkscape/config/inkscape/extensions/textext/default_packages.tex"
         ns1:scale="1.0"
         ns1:alignment="middle center"
         ns1:stroke-to-path="0"
         id="g7899"
         ns1:jacobian_sqrt="1.0">
        <defs
           id="id-dfdad096-ccbe-4f76-93df-2875374eb3c7">
          <g
             id="id-d8b6ea8e-2c01-4a5a-8dbb-7f1c8304928c">
            <g
               id="id-b8d6340f-7a23-4ee6-bb36-0e26745635d9">
              <path
                 d="m 5.046875,-3.75 c 0.0625,-0.140625 0.09375,-0.203125 0.734375,-0.203125 v -0.46875 C 5.53125,-4.40625 5.25,-4.390625 5,-4.390625 c -0.25,0 -0.703125,-0.03125 -0.90625,-0.03125 v 0.46875 c 0.1875,0 0.46875,0.03125 0.46875,0.109375 0,0 0,0.03125 -0.046875,0.109375 l -1.15625,2.5 -1.265625,-2.71875 H 2.625 v -0.46875 c -0.328125,0.015625 -1.21875,0.03125 -1.234375,0.03125 -0.28125,0 -0.71875,-0.03125 -1.125,-0.03125 v 0.46875 h 0.625 l 1.75,3.75 c 0.125,0.25 0.25,0.25 0.375,0.25 0.171875,0 0.28125,-0.03125 0.375,-0.25 z m 0,0"
                 id="id-f4b48666-5a75-4261-bc4a-c2209dd24899" />
            </g>
          </g>
        </defs>
        <g
           fill="#000000"
           fill-opacity="1"
           id="id-0f09afc0-118a-4061-9746-8ef0d44e957a"
           transform="translate(-148.978,-130.343)">
          <g
             transform="translate(148.712,134.765)"
             id="g2901">
            <path
               d="m 5.046875,-3.75 c 0.0625,-0.140625 0.09375,-0.203125 0.734375,-0.203125 v -0.46875 C 5.53125,-4.40625 5.25,-4.390625 5,-4.390625 c -0.25,0 -0.703125,-0.03125 -0.90625,-0.03125 v 0.46875 c 0.1875,0 0.46875,0.03125 0.46875,0.109375 0,0 0,0.03125 -0.046875,0.109375 l -1.15625,2.5 -1.265625,-2.71875 H 2.625 v -0.46875 c -0.328125,0.015625 -1.21875,0.03125 -1.234375,0.03125 -0.28125,0 -0.71875,-0.03125 -1.125,-0.03125 v 0.46875 h 0.625 l 1.75,3.75 c 0.125,0.25 0.25,0.25 0.375,0.25 0.171875,0 0.28125,-0.03125 0.375,-0.25 z m 0,0"
               id="id-7895f92b-1557-4b90-a65f-225e67d0b170" />
          </g>
        </g>
      </g>
      <g
         transform="translate(1.6051074,40.301145)"
         ns1:version="1.9.0"
         ns1:texconverter="pdflatex"
         ns1:pdfconverter="inkscape"
         ns1:text="$\\textbf{c} = \\textbf{b} \\times \\textbf{v}$"
         ns1:preamble="/Users/junseo/Library/Application Support/org.inkscape.Inkscape/config/inkscape/extensions/textext/default_packages.tex"
         ns1:scale="1.0"
         ns1:alignment="middle center"
         ns1:stroke-to-path="0"
         id="g9250"
         ns1:jacobian_sqrt="1.0">
        <defs
           id="id-649722b3-0d5f-4a17-88ee-3b25933850a4">
          <g
             id="id-6b8c3d91-d216-4044-9220-f1ec53582d74">
            <g
               id="id-dfcbe07c-4763-455a-a331-eff204961dca">
              <path
                 d="m 3.59375,-4.0625 c -0.1875,0.171875 -0.203125,0.375 -0.203125,0.46875 0,0.4375 0.34375,0.625 0.609375,0.625 0.3125,0 0.640625,-0.21875 0.640625,-0.625 0,-0.859375 -1.15625,-0.921875 -1.734375,-0.921875 -1.796875,0 -2.53125,1.140625 -2.53125,2.296875 0,1.328125 0.9375,2.28125 2.46875,2.28125 1.625,0 1.921875,-1.15625 1.921875,-1.234375 C 4.765625,-1.3125 4.625,-1.3125 4.53125,-1.3125 c -0.1875,0 -0.1875,0.03125 -0.25,0.15625 -0.25,0.625 -0.734375,0.8125 -1.234375,0.8125 -1.390625,0 -1.390625,-1.453125 -1.390625,-1.921875 0,-0.5625 0,-1.84375 1.28125,-1.84375 0.359375,0 0.515625,0.015625 0.65625,0.046875 z m 0,0"
                 id="id-d6a55e5d-f8b8-4406-a4e7-0e0524bbfb6d" />
            </g>
            <g
               id="id-4c2fd5ef-86da-4f93-8949-eef8befbaaa8">
              <path
                 d="M 2.140625,-4 V -6.921875 L 0.375,-6.84375 V -6.375 c 0.609375,0 0.6875,0 0.6875,0.390625 V 0 h 0.46875 l 0.484375,-0.5625 c 0.078125,0.078125 0.5625,0.625 1.453125,0.625 1.484375,0 2.515625,-0.90625 2.515625,-2.28125 0,-1.328125 -0.9375,-2.265625 -2.390625,-2.265625 C 2.875,-4.484375 2.375,-4.203125 2.140625,-4 Z M 2.1875,-0.984375 v -2.5 C 2.46875,-3.84375 2.9375,-4.125 3.484375,-4.125 c 1.21875,0 1.21875,1.203125 1.21875,1.90625 0,0.46875 0,1.015625 -0.25,1.40625 -0.296875,0.40625 -0.75,0.515625 -1.078125,0.515625 -0.6875,0 -1.078125,-0.546875 -1.1875,-0.6875 z m 0,0"
                 id="id-a2a9ed88-5410-4a6a-b533-fb5235b0f10d" />
            </g>
            <g
               id="id-2dfcb3f2-ad40-416b-8112-536f8fb9e43d">
              <path
                 d="m 5.046875,-3.75 c 0.0625,-0.140625 0.09375,-0.203125 0.734375,-0.203125 v -0.46875 C 5.53125,-4.40625 5.25,-4.390625 5,-4.390625 c -0.25,0 -0.703125,-0.03125 -0.90625,-0.03125 v 0.46875 c 0.1875,0 0.46875,0.03125 0.46875,0.109375 0,0 0,0.03125 -0.046875,0.109375 l -1.15625,2.5 -1.265625,-2.71875 H 2.625 v -0.46875 c -0.328125,0.015625 -1.21875,0.03125 -1.234375,0.03125 -0.28125,0 -0.71875,-0.03125 -1.125,-0.03125 v 0.46875 h 0.625 l 1.75,3.75 c 0.125,0.25 0.25,0.25 0.375,0.25 0.171875,0 0.28125,-0.03125 0.375,-0.25 z m 0,0"
                 id="id-89ed5d54-a19f-47e0-a30b-88130b250c21" />
            </g>
            <g
               id="id-fff3b74f-08d1-4ff0-96c7-ecf8914aea57">
              <path
                 d="m 6.84375,-3.265625 c 0.15625,0 0.34375,0 0.34375,-0.1875 C 7.1875,-3.65625 7,-3.65625 6.859375,-3.65625 h -5.96875 c -0.140625,0 -0.328125,0 -0.328125,0.203125 0,0.1875 0.1875,0.1875 0.328125,0.1875 z m 0.015625,1.9375 c 0.140625,0 0.328125,0 0.328125,-0.203125 0,-0.1875 -0.1875,-0.1875 -0.34375,-0.1875 H 0.890625 c -0.140625,0 -0.328125,0 -0.328125,0.1875 0,0.203125 0.1875,0.203125 0.328125,0.203125 z m 0,0"
                 id="id-024d997a-dfc6-49bc-b3c4-aefb88d46647" />
            </g>
            <g
               id="id-1768560a-280d-4e96-82ca-227c172f4ff5">
              <path
                 d="M 3.875,-2.765625 1.890625,-4.75 C 1.765625,-4.875 1.75,-4.890625 1.671875,-4.890625 1.5625,-4.890625 1.46875,-4.8125 1.46875,-4.6875 c 0,0.0625 0.015625,0.078125 0.125,0.1875 l 2,2 -2,2.015625 c -0.109375,0.109375 -0.125,0.125 -0.125,0.1875 0,0.125 0.09375,0.203125 0.203125,0.203125 0.078125,0 0.09375,-0.015625 0.21875,-0.140625 L 3.875,-2.21875 l 2.0625,2.0625 c 0.015625,0.015625 0.078125,0.0625 0.140625,0.0625 0.125,0 0.203125,-0.078125 0.203125,-0.203125 0,-0.015625 0,-0.046875 -0.03125,-0.109375 C 6.234375,-0.421875 4.65625,-1.984375 4.15625,-2.5 l 1.828125,-1.8125 c 0.046875,-0.0625 0.203125,-0.1875 0.25,-0.25 0,-0.015625 0.046875,-0.0625 0.046875,-0.125 0,-0.125 -0.078125,-0.203125 -0.203125,-0.203125 C 6,-4.890625 5.96875,-4.859375 5.859375,-4.75 Z m 0,0"
                 id="id-ee9c20b8-98f1-4ecd-88bf-6b260cfae102" />
            </g>
          </g>
        </defs>
        <g
           fill="#000000"
           fill-opacity="1"
           id="id-dd247163-d653-4299-bf4c-faa7da0b9903"
           transform="translate(-149.087,-127.843)">
          <g
             transform="translate(148.712,134.765)"
             id="g1458">
            <path
               d="m 3.59375,-4.0625 c -0.1875,0.171875 -0.203125,0.375 -0.203125,0.46875 0,0.4375 0.34375,0.625 0.609375,0.625 0.3125,0 0.640625,-0.21875 0.640625,-0.625 0,-0.859375 -1.15625,-0.921875 -1.734375,-0.921875 -1.796875,0 -2.53125,1.140625 -2.53125,2.296875 0,1.328125 0.9375,2.28125 2.46875,2.28125 1.625,0 1.921875,-1.15625 1.921875,-1.234375 C 4.765625,-1.3125 4.625,-1.3125 4.53125,-1.3125 c -0.1875,0 -0.1875,0.03125 -0.25,0.15625 -0.25,0.625 -0.734375,0.8125 -1.234375,0.8125 -1.390625,0 -1.390625,-1.453125 -1.390625,-1.921875 0,-0.5625 0,-1.84375 1.28125,-1.84375 0.359375,0 0.515625,0.015625 0.65625,0.046875 z m 0,0"
               id="id-96486d22-6616-459c-a09a-21882db97194" />
          </g>
        </g>
        <g
           fill="#000000"
           fill-opacity="1"
           id="id-1b8b3487-4f2e-41f1-8fa8-d47941689da8"
           transform="translate(-149.087,-127.843)">
          <g
             transform="translate(156.572,134.765)"
             id="g2007">
            <path
               d="m 6.84375,-3.265625 c 0.15625,0 0.34375,0 0.34375,-0.1875 C 7.1875,-3.65625 7,-3.65625 6.859375,-3.65625 h -5.96875 c -0.140625,0 -0.328125,0 -0.328125,0.203125 0,0.1875 0.1875,0.1875 0.328125,0.1875 z m 0.015625,1.9375 c 0.140625,0 0.328125,0 0.328125,-0.203125 0,-0.1875 -0.1875,-0.1875 -0.34375,-0.1875 H 0.890625 c -0.140625,0 -0.328125,0 -0.328125,0.1875 0,0.203125 0.1875,0.203125 0.328125,0.203125 z m 0,0"
               id="id-18014112-1fca-4b86-8358-9412c049dbee" />
          </g>
        </g>
        <g
           fill="#000000"
           fill-opacity="1"
           id="id-d20b273e-edb6-42bb-b73b-0f25ba4867d2"
           transform="translate(-149.087,-127.843)">
          <g
             transform="translate(167.088,134.765)"
             id="g8097">
            <path
               d="M 2.140625,-4 V -6.921875 L 0.375,-6.84375 V -6.375 c 0.609375,0 0.6875,0 0.6875,0.390625 V 0 h 0.46875 l 0.484375,-0.5625 c 0.078125,0.078125 0.5625,0.625 1.453125,0.625 1.484375,0 2.515625,-0.90625 2.515625,-2.28125 0,-1.328125 -0.9375,-2.265625 -2.390625,-2.265625 C 2.875,-4.484375 2.375,-4.203125 2.140625,-4 Z M 2.1875,-0.984375 v -2.5 C 2.46875,-3.84375 2.9375,-4.125 3.484375,-4.125 c 1.21875,0 1.21875,1.203125 1.21875,1.90625 0,0.46875 0,1.015625 -0.25,1.40625 -0.296875,0.40625 -0.75,0.515625 -1.078125,0.515625 -0.6875,0 -1.078125,-0.546875 -1.1875,-0.6875 z m 0,0"
               id="id-d7fc99b2-81a3-4381-a033-c3d99d65f878" />
          </g>
        </g>
        <g
           fill="#000000"
           fill-opacity="1"
           id="id-ea33aeae-0bfb-4d40-9792-1a5fdd7267e2"
           transform="translate(-149.087,-127.843)">
          <g
             transform="translate(175.667,134.765)"
             id="g1887">
            <path
               d="M 3.875,-2.765625 1.890625,-4.75 C 1.765625,-4.875 1.75,-4.890625 1.671875,-4.890625 1.5625,-4.890625 1.46875,-4.8125 1.46875,-4.6875 c 0,0.0625 0.015625,0.078125 0.125,0.1875 l 2,2 -2,2.015625 c -0.109375,0.109375 -0.125,0.125 -0.125,0.1875 0,0.125 0.09375,0.203125 0.203125,0.203125 0.078125,0 0.09375,-0.015625 0.21875,-0.140625 L 3.875,-2.21875 l 2.0625,2.0625 c 0.015625,0.015625 0.078125,0.0625 0.140625,0.0625 0.125,0 0.203125,-0.078125 0.203125,-0.203125 0,-0.015625 0,-0.046875 -0.03125,-0.109375 C 6.234375,-0.421875 4.65625,-1.984375 4.15625,-2.5 l 1.828125,-1.8125 c 0.046875,-0.0625 0.203125,-0.1875 0.25,-0.25 0,-0.015625 0.046875,-0.0625 0.046875,-0.125 0,-0.125 -0.078125,-0.203125 -0.203125,-0.203125 C 6,-4.890625 5.96875,-4.859375 5.859375,-4.75 Z m 0,0"
               id="id-feb9c2a8-4a14-4a20-9d91-2e167fe8b200" />
          </g>
        </g>
        <g
           fill="#000000"
           fill-opacity="1"
           id="id-6e181b90-2b4e-41ba-94e7-3e6f39116f18"
           transform="translate(-149.087,-127.843)">
          <g
             transform="translate(185.629,134.765)"
             id="g5592">
            <path
               d="m 5.046875,-3.75 c 0.0625,-0.140625 0.09375,-0.203125 0.734375,-0.203125 v -0.46875 C 5.53125,-4.40625 5.25,-4.390625 5,-4.390625 c -0.25,0 -0.703125,-0.03125 -0.90625,-0.03125 v 0.46875 c 0.1875,0 0.46875,0.03125 0.46875,0.109375 0,0 0,0.03125 -0.046875,0.109375 l -1.15625,2.5 -1.265625,-2.71875 H 2.625 v -0.46875 c -0.328125,0.015625 -1.21875,0.03125 -1.234375,0.03125 -0.28125,0 -0.71875,-0.03125 -1.125,-0.03125 v 0.46875 h 0.625 l 1.75,3.75 c 0.125,0.25 0.25,0.25 0.375,0.25 0.171875,0 0.28125,-0.03125 0.375,-0.25 z m 0,0"
               id="id-849cd2c1-df1a-45a0-bd6e-d8458eedd08d" />
          </g>
        </g>
      </g>
      <g
         transform="rotate(35.913159,4.9311012,-110.56176)"
         ns1:version="1.9.0"
         ns1:texconverter="pdflatex"
         ns1:pdfconverter="inkscape"
         ns1:text="$\\textbf{b} \\times \\textbf{c}$"
         ns1:preamble="/Users/junseo/Library/Application Support/org.inkscape.Inkscape/config/inkscape/extensions/textext/default_packages.tex"
         ns1:scale="1.0"
         ns1:alignment="middle center"
         ns1:stroke-to-path="0"
         id="g6086"
         ns1:jacobian_sqrt="1.0">
        <defs
           id="id-f987b409-b46d-407b-8870-7ab3cab215fe">
          <g
             id="id-122fe640-f7a7-4380-b8c2-52af4cec965f">
            <g
               id="id-ca27709c-1de9-49a1-aa09-677e7372c610">
              <path
                 d="M 2.140625,-4 V -6.921875 L 0.375,-6.84375 V -6.375 c 0.609375,0 0.6875,0 0.6875,0.390625 V 0 h 0.46875 l 0.484375,-0.5625 c 0.078125,0.078125 0.5625,0.625 1.453125,0.625 1.484375,0 2.515625,-0.90625 2.515625,-2.28125 0,-1.328125 -0.9375,-2.265625 -2.390625,-2.265625 C 2.875,-4.484375 2.375,-4.203125 2.140625,-4 Z M 2.1875,-0.984375 v -2.5 C 2.46875,-3.84375 2.9375,-4.125 3.484375,-4.125 c 1.21875,0 1.21875,1.203125 1.21875,1.90625 0,0.46875 0,1.015625 -0.25,1.40625 -0.296875,0.40625 -0.75,0.515625 -1.078125,0.515625 -0.6875,0 -1.078125,-0.546875 -1.1875,-0.6875 z m 0,0"
                 id="id-065e9b98-42d9-412c-8523-0b69629564f7" />
            </g>
            <g
               id="id-c04b8ead-4f1e-44cc-8b59-e688bea80f09">
              <path
                 d="m 3.59375,-4.0625 c -0.1875,0.171875 -0.203125,0.375 -0.203125,0.46875 0,0.4375 0.34375,0.625 0.609375,0.625 0.3125,0 0.640625,-0.21875 0.640625,-0.625 0,-0.859375 -1.15625,-0.921875 -1.734375,-0.921875 -1.796875,0 -2.53125,1.140625 -2.53125,2.296875 0,1.328125 0.9375,2.28125 2.46875,2.28125 1.625,0 1.921875,-1.15625 1.921875,-1.234375 C 4.765625,-1.3125 4.625,-1.3125 4.53125,-1.3125 c -0.1875,0 -0.1875,0.03125 -0.25,0.15625 -0.25,0.625 -0.734375,0.8125 -1.234375,0.8125 -1.390625,0 -1.390625,-1.453125 -1.390625,-1.921875 0,-0.5625 0,-1.84375 1.28125,-1.84375 0.359375,0 0.515625,0.015625 0.65625,0.046875 z m 0,0"
                 id="id-770cb31d-837b-4040-8fec-2c7c4006a470" />
            </g>
            <g
               id="id-fc9a32fb-1416-4459-a2d7-d17a007c7e7d">
              <path
                 d="M 3.875,-2.765625 1.890625,-4.75 C 1.765625,-4.875 1.75,-4.890625 1.671875,-4.890625 1.5625,-4.890625 1.46875,-4.8125 1.46875,-4.6875 c 0,0.0625 0.015625,0.078125 0.125,0.1875 l 2,2 -2,2.015625 c -0.109375,0.109375 -0.125,0.125 -0.125,0.1875 0,0.125 0.09375,0.203125 0.203125,0.203125 0.078125,0 0.09375,-0.015625 0.21875,-0.140625 L 3.875,-2.21875 l 2.0625,2.0625 c 0.015625,0.015625 0.078125,0.0625 0.140625,0.0625 0.125,0 0.203125,-0.078125 0.203125,-0.203125 0,-0.015625 0,-0.046875 -0.03125,-0.109375 C 6.234375,-0.421875 4.65625,-1.984375 4.15625,-2.5 l 1.828125,-1.8125 c 0.046875,-0.0625 0.203125,-0.1875 0.25,-0.25 0,-0.015625 0.046875,-0.0625 0.046875,-0.125 0,-0.125 -0.078125,-0.203125 -0.203125,-0.203125 C 6,-4.890625 5.96875,-4.859375 5.859375,-4.75 Z m 0,0"
                 id="id-36d1e59b-8eff-49f1-a560-01fe57021761" />
            </g>
          </g>
        </defs>
        <g
           fill="#000000"
           fill-opacity="1"
           id="id-8aa2fb14-bffc-4477-ac3a-103aea6b61ff"
           transform="translate(-149.087,-127.843)">
          <g
             transform="translate(148.712,134.765)"
             id="g6834">
            <path
               d="M 2.140625,-4 V -6.921875 L 0.375,-6.84375 V -6.375 c 0.609375,0 0.6875,0 0.6875,0.390625 V 0 h 0.46875 l 0.484375,-0.5625 c 0.078125,0.078125 0.5625,0.625 1.453125,0.625 1.484375,0 2.515625,-0.90625 2.515625,-2.28125 0,-1.328125 -0.9375,-2.265625 -2.390625,-2.265625 C 2.875,-4.484375 2.375,-4.203125 2.140625,-4 Z M 2.1875,-0.984375 v -2.5 C 2.46875,-3.84375 2.9375,-4.125 3.484375,-4.125 c 1.21875,0 1.21875,1.203125 1.21875,1.90625 0,0.46875 0,1.015625 -0.25,1.40625 -0.296875,0.40625 -0.75,0.515625 -1.078125,0.515625 -0.6875,0 -1.078125,-0.546875 -1.1875,-0.6875 z m 0,0"
               id="id-4e115304-0415-4687-b106-a33adf3b6db4" />
          </g>
        </g>
        <g
           fill="#000000"
           fill-opacity="1"
           id="id-4ce09166-6468-44ec-a086-8489fc04f62c"
           transform="translate(-149.087,-127.843)">
          <g
             transform="translate(157.291,134.765)"
             id="g3526">
            <path
               d="M 3.875,-2.765625 1.890625,-4.75 C 1.765625,-4.875 1.75,-4.890625 1.671875,-4.890625 1.5625,-4.890625 1.46875,-4.8125 1.46875,-4.6875 c 0,0.0625 0.015625,0.078125 0.125,0.1875 l 2,2 -2,2.015625 c -0.109375,0.109375 -0.125,0.125 -0.125,0.1875 0,0.125 0.09375,0.203125 0.203125,0.203125 0.078125,0 0.09375,-0.015625 0.21875,-0.140625 L 3.875,-2.21875 l 2.0625,2.0625 c 0.015625,0.015625 0.078125,0.0625 0.140625,0.0625 0.125,0 0.203125,-0.078125 0.203125,-0.203125 0,-0.015625 0,-0.046875 -0.03125,-0.109375 C 6.234375,-0.421875 4.65625,-1.984375 4.15625,-2.5 l 1.828125,-1.8125 c 0.046875,-0.0625 0.203125,-0.1875 0.25,-0.25 0,-0.015625 0.046875,-0.0625 0.046875,-0.125 0,-0.125 -0.078125,-0.203125 -0.203125,-0.203125 C 6,-4.890625 5.96875,-4.859375 5.859375,-4.75 Z m 0,0"
               id="id-770a94b3-c8a0-4c9c-b866-f2a5e89d8552" />
          </g>
        </g>
        <g
           fill="#000000"
           fill-opacity="1"
           id="id-6619e0e9-6748-4146-8236-eda27feae5f0"
           transform="translate(-149.087,-127.843)">
          <g
             transform="translate(167.254,134.765)"
             id="g895">
            <path
               d="m 3.59375,-4.0625 c -0.1875,0.171875 -0.203125,0.375 -0.203125,0.46875 0,0.4375 0.34375,0.625 0.609375,0.625 0.3125,0 0.640625,-0.21875 0.640625,-0.625 0,-0.859375 -1.15625,-0.921875 -1.734375,-0.921875 -1.796875,0 -2.53125,1.140625 -2.53125,2.296875 0,1.328125 0.9375,2.28125 2.46875,2.28125 1.625,0 1.921875,-1.15625 1.921875,-1.234375 C 4.765625,-1.3125 4.625,-1.3125 4.53125,-1.3125 c -0.1875,0 -0.1875,0.03125 -0.25,0.15625 -0.25,0.625 -0.734375,0.8125 -1.234375,0.8125 -1.390625,0 -1.390625,-1.453125 -1.390625,-1.921875 0,-0.5625 0,-1.84375 1.28125,-1.84375 0.359375,0 0.515625,0.015625 0.65625,0.046875 z m 0,0"
               id="id-13317ece-0ad6-4848-9299-3a7481afe54f" />
          </g>
        </g>
      </g>
    </g>
  </g>
</svg>
