<?xml version="1.0" encoding="UTF-8" standalone="no"?>
<!-- Created with Inkscape (http://www.inkscape.org/) -->

<svg
   width="396.8504"
   height="559.37006"
   viewBox="0 0 105 147.99999"
   version="1.1"
   id="svg1"
   inkscape:version="1.3 (0e150ed, 2023-07-21)"
   sodipodi:docname="fig2_11.svg"
   inkscape:export-filename="fig2_11.png"
   inkscape:export-xdpi="384"
   inkscape:export-ydpi="384"
   xmlns:inkscape="http://www.inkscape.org/namespaces/inkscape"
   xmlns:sodipodi="http://sodipodi.sourceforge.net/DTD/sodipodi-0.dtd"
   xmlns:xlink="http://www.w3.org/1999/xlink"
   xmlns="http://www.w3.org/2000/svg"
   xmlns:svg="http://www.w3.org/2000/svg"
   xmlns:ns1="http://www.iki.fi/pav/software/textext/">
  <sodipodi:namedview
     id="namedview1"
     pagecolor="#ffffff"
     bordercolor="#999999"
     borderopacity="1"
     inkscape:showpageshadow="2"
     inkscape:pageopacity="0"
     inkscape:pagecheckerboard="false"
     inkscape:deskcolor="#d1d1d1"
     inkscape:document-units="px"
     inkscape:zoom="2.1289233"
     inkscape:cx="171.68303"
     inkscape:cy="256.46767"
     inkscape:window-width="1472"
     inkscape:window-height="891"
     inkscape:window-x="275"
     inkscape:window-y="190"
     inkscape:window-maximized="0"
     inkscape:current-layer="layer1"
     showguides="true"
     labelstyle="default"
     shape-rendering="auto" />
  <defs
     id="defs1">
    <marker
       style="overflow:visible"
       id="DartArrow"
       refX="0"
       refY="0"
       orient="auto-start-reverse"
       inkscape:stockid="Dart arrow"
       markerWidth="1"
       markerHeight="1"
       viewBox="0 0 1 1"
       inkscape:isstock="true"
       inkscape:collect="always"
       preserveAspectRatio="xMidYMid">
      <path
         style="fill:context-stroke;fill-rule:evenodd;stroke:none"
         d="M 0,0 5,-5 -12.5,0 5,5 Z"
         transform="scale(-0.5)"
         id="path6" />
    </marker>
    <inkscape:path-effect
       effect="bspline"
       id="path-effect34"
       is_visible="true"
       lpeversion="1.3"
       weight="33.333333"
       steps="2"
       helper_size="0"
       apply_no_weight="true"
       apply_with_weight="true"
       only_selected="false"
       uniform="false" />
    <marker
       style="overflow:visible"
       id="marker33"
       refX="0"
       refY="0"
       orient="auto-start-reverse"
       inkscape:stockid="Triangle arrow"
       markerWidth="1"
       markerHeight="1"
       viewBox="0 0 1 1"
       inkscape:isstock="true"
       inkscape:collect="always"
       preserveAspectRatio="xMidYMid">
      <path
         transform="scale(0.5)"
         style="fill:context-stroke;fill-rule:evenodd;stroke:context-stroke;stroke-width:1pt"
         d="M 5.77,0 -2.88,5 V -5 Z"
         id="path33" />
    </marker>
    <marker
       style="overflow:visible"
       id="Triangle"
       refX="0"
       refY="0"
       orient="auto-start-reverse"
       inkscape:stockid="Triangle arrow"
       markerWidth="1"
       markerHeight="1"
       viewBox="0 0 1 1"
       inkscape:isstock="true"
       inkscape:collect="always"
       preserveAspectRatio="xMidYMid">
      <path
         transform="scale(0.5)"
         style="fill:context-stroke;fill-rule:evenodd;stroke:context-stroke;stroke-width:1pt"
         d="M 5.77,0 -2.88,5 V -5 Z"
         id="path135" />
    </marker>
    <inkscape:path-effect
       effect="bspline"
       id="path-effect31"
       is_visible="true"
       lpeversion="1.3"
       weight="33.333333"
       steps="2"
       helper_size="0"
       apply_no_weight="true"
       apply_with_weight="true"
       only_selected="false"
       uniform="false" />
    <inkscape:path-effect
       effect="bspline"
       id="path-effect30"
       is_visible="true"
       lpeversion="1.3"
       weight="33.333333"
       steps="2"
       helper_size="0"
       apply_no_weight="true"
       apply_with_weight="true"
       only_selected="false"
       uniform="false" />
    <linearGradient
       id="linearGradient29"
       inkscape:collect="always">
      <stop
         style="stop-color:#000000;stop-opacity:0;"
         offset="0"
         id="stop30" />
      <stop
         style="stop-color:#000000;stop-opacity:1;"
         offset="1"
         id="stop29" />
    </linearGradient>
    <inkscape:path-effect
       effect="bspline"
       id="path-effect7"
       is_visible="true"
       lpeversion="1.3"
       weight="33.333333"
       steps="2"
       helper_size="0"
       apply_no_weight="true"
       apply_with_weight="true"
       only_selected="false"
       uniform="false" />
    <inkscape:path-effect
       effect="bspline"
       id="path-effect5"
       is_visible="true"
       lpeversion="1.3"
       weight="33.333333"
       steps="2"
       helper_size="0"
       apply_no_weight="true"
       apply_with_weight="true"
       only_selected="false"
       uniform="false" />
    <marker
       style="overflow:visible"
       id="marker3"
       refX="0"
       refY="0"
       orient="auto-start-reverse"
       inkscape:stockid="Dart arrow"
       markerWidth="1"
       markerHeight="1"
       viewBox="0 0 1 1"
       inkscape:isstock="true"
       inkscape:collect="always"
       preserveAspectRatio="xMidYMid">
      <path
         style="fill:context-stroke;fill-rule:evenodd;stroke:none"
         d="M 0,0 5,-5 -12.5,0 5,5 Z"
         transform="scale(-0.5)"
         id="path3" />
    </marker>
    <inkscape:perspective
       sodipodi:type="inkscape:persp3d"
       inkscape:vp_x="49.143399 : 58.527595 : 1"
       inkscape:vp_y="0 : 999.99988 : 0"
       inkscape:vp_z="259.14341 : 58.527595 : 1"
       inkscape:persp3d-origin="154.14341 : 9.0276086 : 1"
       id="perspective1" />
    <radialGradient
       inkscape:collect="always"
       xlink:href="#linearGradient29"
       id="radialGradient30"
       cx="42.764484"
       cy="47.180042"
       fx="42.764484"
       fy="47.180042"
       r="3.5000458"
       gradientUnits="userSpaceOnUse"
       gradientTransform="matrix(0.43555493,0,0,0.43555493,20.441162,27.844368)" />
  </defs>
  <g
     inkscape:groupmode="layer"
     id="layer2"
     inkscape:label="Layer 2">
    <g
       transform="matrix(0.352778,0,0,0.352778,20.062139,31.091049)"
       ns1:version="1.9.0"
       ns1:texconverter="pdflatex"
       ns1:pdfconverter="inkscape"
       ns1:text="$y$"
       ns1:preamble="/Users/junseo/Library/Application Support/org.inkscape.Inkscape/config/inkscape/extensions/textext/default_packages.tex"
       ns1:scale="1.0"
       ns1:alignment="middle center"
       ns1:stroke-to-path="0"
       ns1:inkscapeversion="1.3"
       id="g6665"
       ns1:jacobian_sqrt="0.352778">
      <defs
         id="id-fc5afbe9-e360-4e77-8444-9ce244b81b39">
        <g
           id="id-5bc8bb6b-1790-4673-93bd-625213e60594">
          <g
             id="id-d4e41ef2-ec32-4256-b5a5-a1f5540471da">
            <path
               d="m 4.84375,-3.796875 c 0.046875,-0.140625 0.046875,-0.15625 0.046875,-0.234375 0,-0.171875 -0.140625,-0.265625 -0.296875,-0.265625 -0.09375,0 -0.25,0.0625 -0.34375,0.203125 -0.015625,0.0625 -0.109375,0.359375 -0.140625,0.546875 -0.078125,0.25 -0.140625,0.53125 -0.203125,0.796875 l -0.453125,1.796875 c -0.03125,0.140625 -0.46875,0.84375 -1.125,0.84375 -0.5,0 -0.609375,-0.4375 -0.609375,-0.8125 C 1.71875,-1.375 1.890625,-2 2.21875,-2.875 2.375,-3.28125 2.421875,-3.390625 2.421875,-3.59375 c 0,-0.4375 -0.3125,-0.8125 -0.8125,-0.8125 -0.953125,0 -1.3125,1.453125 -1.3125,1.53125 0,0.109375 0.09375,0.109375 0.109375,0.109375 0.109375,0 0.109375,-0.03125 0.15625,-0.1875 0.28125,-0.9375 0.671875,-1.234375 1.015625,-1.234375 0.078125,0 0.25,0 0.25,0.3125 0,0.25 -0.109375,0.515625 -0.171875,0.703125 -0.40625,1.0625 -0.578125,1.625 -0.578125,2.09375 0,0.890625 0.625,1.1875 1.21875,1.1875 0.390625,0 0.71875,-0.171875 1,-0.453125 -0.125,0.515625 -0.25,1.015625 -0.640625,1.546875 -0.265625,0.328125 -0.640625,0.625 -1.09375,0.625 -0.140625,0 -0.59375,-0.03125 -0.765625,-0.421875 0.15625,0 0.296875,0 0.421875,-0.125 C 1.328125,1.203125 1.421875,1.0625 1.421875,0.875 1.421875,0.5625 1.15625,0.53125 1.0625,0.53125 0.828125,0.53125 0.5,0.6875 0.5,1.171875 c 0,0.5 0.4375,0.875 1.0625,0.875 1.015625,0 2.046875,-0.90625 2.328125,-2.03125 z m 0,0"
               id="id-ac48d93c-ef22-4b21-a126-db0fd88cda37" />
          </g>
        </g>
      </defs>
      <g
         fill="#000000"
         fill-opacity="1"
         id="id-f4126a6b-4fa5-4719-b8a2-a63c07e1f77e"
         transform="translate(-149.009,-130.359)">
        <g
           transform="translate(148.712,134.765)"
           id="g6669">
          <path
             d="m 4.84375,-3.796875 c 0.046875,-0.140625 0.046875,-0.15625 0.046875,-0.234375 0,-0.171875 -0.140625,-0.265625 -0.296875,-0.265625 -0.09375,0 -0.25,0.0625 -0.34375,0.203125 -0.015625,0.0625 -0.109375,0.359375 -0.140625,0.546875 -0.078125,0.25 -0.140625,0.53125 -0.203125,0.796875 l -0.453125,1.796875 c -0.03125,0.140625 -0.46875,0.84375 -1.125,0.84375 -0.5,0 -0.609375,-0.4375 -0.609375,-0.8125 C 1.71875,-1.375 1.890625,-2 2.21875,-2.875 2.375,-3.28125 2.421875,-3.390625 2.421875,-3.59375 c 0,-0.4375 -0.3125,-0.8125 -0.8125,-0.8125 -0.953125,0 -1.3125,1.453125 -1.3125,1.53125 0,0.109375 0.09375,0.109375 0.109375,0.109375 0.109375,0 0.109375,-0.03125 0.15625,-0.1875 0.28125,-0.9375 0.671875,-1.234375 1.015625,-1.234375 0.078125,0 0.25,0 0.25,0.3125 0,0.25 -0.109375,0.515625 -0.171875,0.703125 -0.40625,1.0625 -0.578125,1.625 -0.578125,2.09375 0,0.890625 0.625,1.1875 1.21875,1.1875 0.390625,0 0.71875,-0.171875 1,-0.453125 -0.125,0.515625 -0.25,1.015625 -0.640625,1.546875 -0.265625,0.328125 -0.640625,0.625 -1.09375,0.625 -0.140625,0 -0.59375,-0.03125 -0.765625,-0.421875 0.15625,0 0.296875,0 0.421875,-0.125 C 1.328125,1.203125 1.421875,1.0625 1.421875,0.875 1.421875,0.5625 1.15625,0.53125 1.0625,0.53125 0.828125,0.53125 0.5,0.6875 0.5,1.171875 c 0,0.5 0.4375,0.875 1.0625,0.875 1.015625,0 2.046875,-0.90625 2.328125,-2.03125 z m 0,0"
             id="id-a87d9ad4-9a19-4bf8-8538-9ce8f1fe831d" />
        </g>
      </g>
    </g>
    <path
       style="fill:url(#radialGradient30);stroke:none;stroke-width:0.11524;stroke-linecap:square;stroke-linejoin:round;stroke-miterlimit:3.5;stroke-dasharray:none;stroke-dashoffset:0;paint-order:fill markers stroke"
       id="path7"
       sodipodi:type="arc"
       sodipodi:cx="39.771694"
       sodipodi:cy="49.330521"
       sodipodi:rx="1.5244622"
       sodipodi:ry="1.5244622"
       sodipodi:start="2.0444406"
       sodipodi:end="2.0178078"
       sodipodi:arc-type="arc"
       d="m 39.076338,50.687158 a 1.5244622,1.5244622 0 0 1 -0.665881,-2.042946 1.5244622,1.5244622 0 0 1 2.038467,-0.679468 1.5244622,1.5244622 0 0 1 0.693025,2.033898 1.5244622,1.5244622 0 0 1 -2.029238,0.706552"
       sodipodi:open="true" />
    <path
       style="fill:#000000;fill-opacity:1;stroke:#000000;stroke-width:0.264583;stroke-linecap:square;stroke-linejoin:round;stroke-miterlimit:3.5;stroke-dasharray:none;stroke-dashoffset:0;stroke-opacity:1;marker-end:url(#Triangle);paint-order:fill markers stroke"
       d="m 39.112711,50.705194 c 0,6.801946 0,13.603893 0,20.405814"
       id="path30"
       inkscape:path-effect="#path-effect30"
       inkscape:original-d="m 39.112711,50.705194 c 0,6.801946 0,13.603893 0,20.405814"
       sodipodi:nodetypes="cc" />
    <path
       style="fill:#000000;fill-opacity:1;stroke:#000000;stroke-width:0.264583;stroke-linecap:square;stroke-linejoin:round;stroke-miterlimit:3.5;stroke-dasharray:none;stroke-dashoffset:0;stroke-opacity:1;marker-end:url(#marker33);paint-order:fill markers stroke"
       d="m 40.546273,50.572902 c 0,2.864128 0,5.728256 0,8.592381"
       id="path31"
       inkscape:path-effect="#path-effect31"
       inkscape:original-d="m 40.546273,50.572902 c 0,2.864128 0,5.728256 0,8.592381" />
    <g
       transform="matrix(0.352778,0,0,0.352778,42.680782,57.60245)"
       ns1:version="1.9.0"
       ns1:texconverter="pdflatex"
       ns1:pdfconverter="inkscape"
       ns1:text="$\\textbf{f} = -b \\textbf{v}$"
       ns1:preamble="/Users/junseo/Library/Application Support/org.inkscape.Inkscape/config/inkscape/extensions/textext/default_packages.tex"
       ns1:scale="1.0"
       ns1:alignment="middle center"
       ns1:stroke-to-path="0"
       ns1:inkscapeversion="1.3"
       id="g9117"
       ns1:jacobian_sqrt="0.352778">
      <defs
         id="id-b6371f4e-b52a-46bd-b07a-2494ef96fd7c">
        <g
           id="id-ad060297-0e82-46bc-9861-e3d48f247d3d">
          <g
             id="id-0ec4269e-6d63-42de-bdbc-e560bb146a99">
            <path
               d="m 1.171875,-4.421875 h -0.75 v 0.46875 h 0.75 v 3.484375 h -0.6875 V 0 c 0.34375,-0.015625 0.796875,-0.03125 1.25,-0.03125 0.375,0 1.015625,0 1.375,0.03125 V -0.46875 H 2.25 v -3.484375 h 1.140625 v -0.46875 H 2.1875 V -5.4375 c 0,-1.09375 0.75,-1.1875 1,-1.1875 0.046875,0 0.109375,0 0.171875,0.03125 C 3.203125,-6.484375 3.125,-6.296875 3.125,-6.109375 3.125,-5.6875 3.484375,-5.5 3.734375,-5.5 c 0.296875,0 0.625,-0.203125 0.625,-0.609375 0,-0.421875 -0.359375,-0.875 -1.140625,-0.875 -0.96875,0 -2.046875,0.421875 -2.046875,1.546875 z m 0,0"
               id="id-88ee2837-742b-4a3b-9155-8f8d52fce9a0" />
          </g>
          <g
             id="id-e934288c-7794-4b16-8a87-f728b36d3f14">
            <path
               d="m 5.046875,-3.75 c 0.0625,-0.140625 0.09375,-0.203125 0.734375,-0.203125 v -0.46875 C 5.53125,-4.40625 5.25,-4.390625 5,-4.390625 c -0.25,0 -0.703125,-0.03125 -0.90625,-0.03125 v 0.46875 c 0.1875,0 0.46875,0.03125 0.46875,0.109375 0,0 0,0.03125 -0.046875,0.109375 l -1.15625,2.5 -1.265625,-2.71875 H 2.625 v -0.46875 c -0.328125,0.015625 -1.21875,0.03125 -1.234375,0.03125 -0.28125,0 -0.71875,-0.03125 -1.125,-0.03125 v 0.46875 h 0.625 l 1.75,3.75 c 0.125,0.25 0.25,0.25 0.375,0.25 0.171875,0 0.28125,-0.03125 0.375,-0.25 z m 0,0"
               id="id-b9eadf69-5dbe-4b20-8a71-ffd84be35891" />
          </g>
          <g
             id="id-a916c0a8-c588-4557-ac2a-641a2e642002">
            <path
               d="m 6.84375,-3.265625 c 0.15625,0 0.34375,0 0.34375,-0.1875 C 7.1875,-3.65625 7,-3.65625 6.859375,-3.65625 h -5.96875 c -0.140625,0 -0.328125,0 -0.328125,0.203125 0,0.1875 0.1875,0.1875 0.328125,0.1875 z m 0.015625,1.9375 c 0.140625,0 0.328125,0 0.328125,-0.203125 0,-0.1875 -0.1875,-0.1875 -0.34375,-0.1875 H 0.890625 c -0.140625,0 -0.328125,0 -0.328125,0.1875 0,0.203125 0.1875,0.203125 0.328125,0.203125 z m 0,0"
               id="id-2ee60a19-544b-4eb9-9168-713bb1628c9b" />
          </g>
          <g
             id="id-60ffceb8-c63b-46dd-bfe2-37737b5ccb98">
            <path
               d="m 6.5625,-2.296875 c 0.171875,0 0.359375,0 0.359375,-0.203125 0,-0.1875 -0.1875,-0.1875 -0.359375,-0.1875 H 1.171875 c -0.171875,0 -0.34375,0 -0.34375,0.1875 0,0.203125 0.171875,0.203125 0.34375,0.203125 z m 0,0"
               id="id-16db2aa9-c5ff-4424-a6cc-62b6fb3eda39" />
          </g>
          <g
             id="id-3039fd60-bd4f-4253-8466-0efdd48f5679">
            <path
               d="m 2.375,-6.8125 c 0,0 0,-0.109375 -0.125,-0.109375 -0.21875,0 -0.953125,0.078125 -1.21875,0.109375 -0.078125,0 -0.1875,0.015625 -0.1875,0.1875 0,0.125 0.09375,0.125 0.25,0.125 0.46875,0 0.484375,0.0625 0.484375,0.171875 0,0.0625 -0.078125,0.40625 -0.125,0.609375 l -0.828125,3.25 c -0.109375,0.5 -0.15625,0.671875 -0.15625,1.015625 0,0.9375 0.53125,1.5625 1.265625,1.5625 1.171875,0 2.40625,-1.484375 2.40625,-2.921875 0,-0.90625 -0.53125,-1.59375 -1.328125,-1.59375 -0.453125,0 -0.875,0.296875 -1.171875,0.59375 z M 1.453125,-3.046875 C 1.5,-3.265625 1.5,-3.28125 1.59375,-3.390625 2.078125,-4.03125 2.53125,-4.1875 2.796875,-4.1875 c 0.359375,0 0.625,0.296875 0.625,0.9375 0,0.59375 -0.328125,1.734375 -0.515625,2.109375 -0.328125,0.671875 -0.78125,1.03125 -1.171875,1.03125 -0.34375,0 -0.671875,-0.265625 -0.671875,-1 0,-0.203125 0,-0.390625 0.15625,-1.015625 z m 0,0"
               id="id-484dc5f9-0700-47d1-b787-e6d8c0aa30d1" />
          </g>
        </g>
      </defs>
      <g
         fill="#000000"
         fill-opacity="1"
         id="id-536c50d4-052e-4509-8997-4c3b7e40ed4f"
         transform="translate(-149.134,-127.781)">
        <g
           transform="translate(148.712,134.765)"
           id="g3749">
          <path
             d="m 1.171875,-4.421875 h -0.75 v 0.46875 h 0.75 v 3.484375 h -0.6875 V 0 c 0.34375,-0.015625 0.796875,-0.03125 1.25,-0.03125 0.375,0 1.015625,0 1.375,0.03125 V -0.46875 H 2.25 v -3.484375 h 1.140625 v -0.46875 H 2.1875 V -5.4375 c 0,-1.09375 0.75,-1.1875 1,-1.1875 0.046875,0 0.109375,0 0.171875,0.03125 C 3.203125,-6.484375 3.125,-6.296875 3.125,-6.109375 3.125,-5.6875 3.484375,-5.5 3.734375,-5.5 c 0.296875,0 0.625,-0.203125 0.625,-0.609375 0,-0.421875 -0.359375,-0.875 -1.140625,-0.875 -0.96875,0 -2.046875,0.421875 -2.046875,1.546875 z m 0,0"
             id="id-db0eab62-ec82-4165-85fc-392942a07e54" />
        </g>
      </g>
      <g
         fill="#000000"
         fill-opacity="1"
         id="id-e5c90bb7-3b7c-433f-afdc-1de1eb7f1399"
         transform="translate(-149.134,-127.781)">
        <g
           transform="translate(154.98,134.765)"
           id="g6995">
          <path
             d="m 6.84375,-3.265625 c 0.15625,0 0.34375,0 0.34375,-0.1875 C 7.1875,-3.65625 7,-3.65625 6.859375,-3.65625 h -5.96875 c -0.140625,0 -0.328125,0 -0.328125,0.203125 0,0.1875 0.1875,0.1875 0.328125,0.1875 z m 0.015625,1.9375 c 0.140625,0 0.328125,0 0.328125,-0.203125 0,-0.1875 -0.1875,-0.1875 -0.34375,-0.1875 H 0.890625 c -0.140625,0 -0.328125,0 -0.328125,0.1875 0,0.203125 0.1875,0.203125 0.328125,0.203125 z m 0,0"
             id="id-f98388e2-56f4-4e33-9192-4515a26382c1" />
        </g>
      </g>
      <g
         fill="#000000"
         fill-opacity="1"
         id="id-346a1c68-33eb-4eb7-a8a7-b1f10fbb711a"
         transform="translate(-149.134,-127.781)">
        <g
           transform="translate(165.496,134.765)"
           id="g3304">
          <path
             d="m 6.5625,-2.296875 c 0.171875,0 0.359375,0 0.359375,-0.203125 0,-0.1875 -0.1875,-0.1875 -0.359375,-0.1875 H 1.171875 c -0.171875,0 -0.34375,0 -0.34375,0.1875 0,0.203125 0.171875,0.203125 0.34375,0.203125 z m 0,0"
             id="id-f528320d-567e-4eec-aabd-d44c8c44ceb5" />
        </g>
      </g>
      <g
         fill="#000000"
         fill-opacity="1"
         id="id-c0ba93f1-1611-4763-be67-402bb386f729"
         transform="translate(-149.134,-127.781)">
        <g
           transform="translate(173.245,134.765)"
           id="g8144">
          <path
             d="m 2.375,-6.8125 c 0,0 0,-0.109375 -0.125,-0.109375 -0.21875,0 -0.953125,0.078125 -1.21875,0.109375 -0.078125,0 -0.1875,0.015625 -0.1875,0.1875 0,0.125 0.09375,0.125 0.25,0.125 0.46875,0 0.484375,0.0625 0.484375,0.171875 0,0.0625 -0.078125,0.40625 -0.125,0.609375 l -0.828125,3.25 c -0.109375,0.5 -0.15625,0.671875 -0.15625,1.015625 0,0.9375 0.53125,1.5625 1.265625,1.5625 1.171875,0 2.40625,-1.484375 2.40625,-2.921875 0,-0.90625 -0.53125,-1.59375 -1.328125,-1.59375 -0.453125,0 -0.875,0.296875 -1.171875,0.59375 z M 1.453125,-3.046875 C 1.5,-3.265625 1.5,-3.28125 1.59375,-3.390625 2.078125,-4.03125 2.53125,-4.1875 2.796875,-4.1875 c 0.359375,0 0.625,0.296875 0.625,0.9375 0,0.59375 -0.328125,1.734375 -0.515625,2.109375 -0.328125,0.671875 -0.78125,1.03125 -1.171875,1.03125 -0.34375,0 -0.671875,-0.265625 -0.671875,-1 0,-0.203125 0,-0.390625 0.15625,-1.015625 z m 0,0"
             id="id-148b2481-5f90-4d6e-8920-e14ba2ca871d" />
        </g>
      </g>
      <g
         fill="#000000"
         fill-opacity="1"
         id="id-ef413227-4954-4f5e-9963-a78a486e69e8"
         transform="translate(-149.134,-127.781)">
        <g
           transform="translate(177.521,134.765)"
           id="g6779">
          <path
             d="m 5.046875,-3.75 c 0.0625,-0.140625 0.09375,-0.203125 0.734375,-0.203125 v -0.46875 C 5.53125,-4.40625 5.25,-4.390625 5,-4.390625 c -0.25,0 -0.703125,-0.03125 -0.90625,-0.03125 v 0.46875 c 0.1875,0 0.46875,0.03125 0.46875,0.109375 0,0 0,0.03125 -0.046875,0.109375 l -1.15625,2.5 -1.265625,-2.71875 H 2.625 v -0.46875 c -0.328125,0.015625 -1.21875,0.03125 -1.234375,0.03125 -0.28125,0 -0.71875,-0.03125 -1.125,-0.03125 v 0.46875 h 0.625 l 1.75,3.75 c 0.125,0.25 0.25,0.25 0.375,0.25 0.171875,0 0.28125,-0.03125 0.375,-0.25 z m 0,0"
             id="id-bea51397-24e0-450b-9b61-161e97169514" />
        </g>
      </g>
    </g>
    <g
       transform="matrix(0.352778,0,0,0.352778,41.095706,70.89861)"
       ns1:version="1.9.0"
       ns1:texconverter="pdflatex"
       ns1:pdfconverter="inkscape"
       ns1:text="$\\textbf{w} = -m \\textbf{g}$"
       ns1:preamble="/Users/junseo/Library/Application Support/org.inkscape.Inkscape/config/inkscape/extensions/textext/default_packages.tex"
       ns1:scale="1.0"
       ns1:alignment="middle center"
       ns1:stroke-to-path="0"
       ns1:inkscapeversion="1.3"
       id="g6760"
       ns1:jacobian_sqrt="0.352778">
      <defs
         id="id-478f9798-0b9d-4fa8-9a14-30441c4b58bf">
        <g
           id="id-72936c08-f1ee-46e3-9e7d-3ea76ceab953">
          <g
             id="id-19b4a1d8-bf09-40e6-bcd9-466cc11d2e2a">
            <path
               d="m 7.34375,-3.75 c 0.046875,-0.125 0.09375,-0.203125 0.6875,-0.203125 v -0.46875 C 7.796875,-4.40625 7.5,-4.390625 7.25,-4.390625 c -0.265625,0 -0.734375,-0.03125 -0.953125,-0.03125 v 0.46875 c 0.09375,0 0.578125,0 0.578125,0.109375 0,0.03125 -0.03125,0.09375 -0.03125,0.125 L 5.796875,-1.171875 4.65625,-3.953125 h 0.5625 v -0.46875 c -0.328125,0 -0.84375,0.03125 -1.140625,0.03125 -0.421875,0 -0.84375,-0.03125 -1,-0.03125 v 0.46875 h 0.59375 c 0.203125,0.5 0.203125,0.515625 0.203125,0.53125 0,0.03125 -0.03125,0.09375 -0.03125,0.125 L 3.046875,-1.390625 2,-3.953125 h 0.5625 v -0.46875 c -0.40625,0.015625 -0.8125,0.03125 -1.234375,0.03125 -0.296875,0 -0.734375,-0.03125 -1.078125,-0.03125 v 0.46875 h 0.59375 l 1.515625,3.71875 C 2.4375,-0.0625 2.46875,0.046875 2.71875,0.046875 c 0.25,0 0.296875,-0.109375 0.359375,-0.28125 L 4.140625,-2.8125 5.1875,-0.234375 c 0.078125,0.171875 0.109375,0.28125 0.359375,0.28125 0.25,0 0.296875,-0.109375 0.359375,-0.28125 z m 0,0"
               id="id-bce81b5c-a434-4a93-bdf8-bcf2933c6f20" />
          </g>
          <g
             id="id-192aa5a1-8422-4163-946f-3a5d2a265538">
            <path
               d="m 2.546875,-1.890625 c -0.875,0 -0.875,-0.671875 -0.875,-1.125 0,-0.4375 0,-1.109375 0.875,-1.109375 0.875,0 0.875,0.671875 0.875,1.109375 0,0.453125 0,1.125 -0.875,1.125 z m -1.21875,0.09375 c 0.453125,0.234375 0.96875,0.265625 1.21875,0.265625 1.4375,0 1.984375,-0.78125 1.984375,-1.484375 0,-0.46875 -0.25,-0.796875 -0.40625,-0.953125 0.296875,-0.15625 0.515625,-0.171875 0.625,-0.1875 -0.03125,0.046875 -0.046875,0.140625 -0.046875,0.203125 0,0.25 0.171875,0.421875 0.4375,0.421875 0.25,0 0.421875,-0.1875 0.421875,-0.421875 0,-0.234375 -0.171875,-0.578125 -0.625,-0.578125 -0.15625,0 -0.625,0.03125 -1.0625,0.375 -0.171875,-0.125 -0.59375,-0.328125 -1.328125,-0.328125 -1.4375,0 -1.984375,0.78125 -1.984375,1.46875 0,0.40625 0.1875,0.828125 0.515625,1.046875 -0.28125,0.359375 -0.34375,0.6875 -0.34375,0.890625 0,0.15625 0.046875,0.640625 0.4375,0.953125 C 1.046875,-0.09375 0.3125,0.125 0.3125,0.75 0.3125,1.25 0.875,2 2.859375,2 4.625,2 5.40625,1.421875 5.40625,0.71875 c 0,-0.296875 -0.078125,-0.921875 -0.75,-1.265625 -0.5625,-0.28125 -1.15625,-0.28125 -2.109375,-0.28125 -0.265625,0 -0.71875,0 -0.765625,-0.015625 -0.453125,-0.0625 -0.5625,-0.4375 -0.5625,-0.625 0,-0.09375 0.046875,-0.25 0.109375,-0.328125 z M 1.9375,0.125 h 1.171875 c 0.3125,0 1.4375,0 1.4375,0.625 0,0.359375 -0.390625,0.890625 -1.6875,0.890625 -1.1875,0 -1.6875,-0.453125 -1.6875,-0.90625 C 1.171875,0.125 1.796875,0.125 1.9375,0.125 Z m 0,0"
               id="id-008e36d8-6219-4d29-9cbf-1d79b27c3159" />
          </g>
          <g
             id="id-79d99543-a1f6-4593-a943-7ccecb5e1d36">
            <path
               d="m 6.84375,-3.265625 c 0.15625,0 0.34375,0 0.34375,-0.1875 C 7.1875,-3.65625 7,-3.65625 6.859375,-3.65625 h -5.96875 c -0.140625,0 -0.328125,0 -0.328125,0.203125 0,0.1875 0.1875,0.1875 0.328125,0.1875 z m 0.015625,1.9375 c 0.140625,0 0.328125,0 0.328125,-0.203125 0,-0.1875 -0.1875,-0.1875 -0.34375,-0.1875 H 0.890625 c -0.140625,0 -0.328125,0 -0.328125,0.1875 0,0.203125 0.1875,0.203125 0.328125,0.203125 z m 0,0"
               id="id-2414daf7-e2ff-43c1-b206-13eec99315d1" />
          </g>
          <g
             id="id-43271d76-1514-4fce-9f7f-c9a74eec5378">
            <path
               d="m 6.5625,-2.296875 c 0.171875,0 0.359375,0 0.359375,-0.203125 0,-0.1875 -0.1875,-0.1875 -0.359375,-0.1875 H 1.171875 c -0.171875,0 -0.34375,0 -0.34375,0.1875 0,0.203125 0.171875,0.203125 0.34375,0.203125 z m 0,0"
               id="id-8398c017-db91-4d3b-8cb4-71934207fa03" />
          </g>
          <g
             id="id-ef890287-c903-4da8-a6cb-916b0508eb6a">
            <path
               d="m 0.875,-0.59375 c -0.03125,0.15625 -0.09375,0.390625 -0.09375,0.4375 0,0.171875 0.140625,0.265625 0.296875,0.265625 0.125,0 0.296875,-0.078125 0.375,-0.28125 0,-0.015625 0.125,-0.484375 0.1875,-0.734375 l 0.21875,-0.890625 C 1.90625,-2.03125 1.96875,-2.25 2.03125,-2.46875 c 0.03125,-0.171875 0.109375,-0.46875 0.125,-0.5 0.140625,-0.3125 0.671875,-1.21875 1.625,-1.21875 0.453125,0 0.53125,0.375 0.53125,0.703125 0,0.25 -0.0625,0.53125 -0.140625,0.828125 L 3.890625,-1.5 3.6875,-0.75 c -0.03125,0.203125 -0.125,0.546875 -0.125,0.59375 0,0.171875 0.140625,0.265625 0.28125,0.265625 0.3125,0 0.375,-0.25 0.453125,-0.5625 0.140625,-0.5625 0.515625,-2.015625 0.59375,-2.40625 0.03125,-0.125 0.5625,-1.328125 1.65625,-1.328125 0.421875,0 0.53125,0.34375 0.53125,0.703125 0,0.5625 -0.421875,1.703125 -0.625,2.234375 -0.078125,0.234375 -0.125,0.34375 -0.125,0.546875 0,0.46875 0.34375,0.8125 0.8125,0.8125 0.9375,0 1.3125,-1.453125 1.3125,-1.53125 0,-0.109375 -0.09375,-0.109375 -0.125,-0.109375 -0.09375,0 -0.09375,0.03125 -0.140625,0.1875 -0.15625,0.53125 -0.46875,1.234375 -1.015625,1.234375 -0.171875,0 -0.25,-0.09375 -0.25,-0.328125 0,-0.25 0.09375,-0.484375 0.1875,-0.703125 0.1875,-0.53125 0.609375,-1.625 0.609375,-2.203125 0,-0.640625 -0.40625,-1.0625 -1.15625,-1.0625 -0.734375,0 -1.25,0.4375 -1.625,0.96875 0,-0.125 -0.03125,-0.46875 -0.3125,-0.703125 -0.25,-0.21875 -0.5625,-0.265625 -0.8125,-0.265625 -0.90625,0 -1.390625,0.640625 -1.5625,0.875 -0.046875,-0.578125 -0.46875,-0.875 -0.921875,-0.875 -0.453125,0 -0.640625,0.390625 -0.734375,0.5625 -0.171875,0.359375 -0.296875,0.9375 -0.296875,0.96875 0,0.109375 0.09375,0.109375 0.109375,0.109375 0.109375,0 0.109375,-0.015625 0.171875,-0.234375 0.171875,-0.703125 0.375,-1.1875 0.734375,-1.1875 0.15625,0 0.296875,0.078125 0.296875,0.453125 0,0.21875 -0.03125,0.328125 -0.15625,0.84375 z m 0,0"
               id="id-8128d3ea-279b-4f54-a7d7-37e5dc36ae4a" />
          </g>
        </g>
      </defs>
      <g
         fill="#000000"
         fill-opacity="1"
         id="id-665da50f-6165-4cb2-b15c-c6b4165adad5"
         transform="translate(-148.962,-130.234)">
        <g
           transform="translate(148.712,134.765)"
           id="g5894">
          <path
             d="m 7.34375,-3.75 c 0.046875,-0.125 0.09375,-0.203125 0.6875,-0.203125 v -0.46875 C 7.796875,-4.40625 7.5,-4.390625 7.25,-4.390625 c -0.265625,0 -0.734375,-0.03125 -0.953125,-0.03125 v 0.46875 c 0.09375,0 0.578125,0 0.578125,0.109375 0,0.03125 -0.03125,0.09375 -0.03125,0.125 L 5.796875,-1.171875 4.65625,-3.953125 h 0.5625 v -0.46875 c -0.328125,0 -0.84375,0.03125 -1.140625,0.03125 -0.421875,0 -0.84375,-0.03125 -1,-0.03125 v 0.46875 h 0.59375 c 0.203125,0.5 0.203125,0.515625 0.203125,0.53125 0,0.03125 -0.03125,0.09375 -0.03125,0.125 L 3.046875,-1.390625 2,-3.953125 h 0.5625 v -0.46875 c -0.40625,0.015625 -0.8125,0.03125 -1.234375,0.03125 -0.296875,0 -0.734375,-0.03125 -1.078125,-0.03125 v 0.46875 h 0.59375 l 1.515625,3.71875 C 2.4375,-0.0625 2.46875,0.046875 2.71875,0.046875 c 0.25,0 0.296875,-0.109375 0.359375,-0.28125 L 4.140625,-2.8125 5.1875,-0.234375 c 0.078125,0.171875 0.109375,0.28125 0.359375,0.28125 0.25,0 0.296875,-0.109375 0.359375,-0.28125 z m 0,0"
             id="id-e6e48e3f-540b-4eb0-b7e8-15a23d7a5e79" />
        </g>
      </g>
      <g
         fill="#000000"
         fill-opacity="1"
         id="id-a0f0db0c-5398-4482-813e-313a09529ad4"
         transform="translate(-148.962,-130.234)">
        <g
           transform="translate(159.754,134.765)"
           id="g4013">
          <path
             d="m 6.84375,-3.265625 c 0.15625,0 0.34375,0 0.34375,-0.1875 C 7.1875,-3.65625 7,-3.65625 6.859375,-3.65625 h -5.96875 c -0.140625,0 -0.328125,0 -0.328125,0.203125 0,0.1875 0.1875,0.1875 0.328125,0.1875 z m 0.015625,1.9375 c 0.140625,0 0.328125,0 0.328125,-0.203125 0,-0.1875 -0.1875,-0.1875 -0.34375,-0.1875 H 0.890625 c -0.140625,0 -0.328125,0 -0.328125,0.1875 0,0.203125 0.1875,0.203125 0.328125,0.203125 z m 0,0"
             id="id-47b17c8d-958a-40b3-8025-ca5290119411" />
        </g>
      </g>
      <g
         fill="#000000"
         fill-opacity="1"
         id="id-75d6924c-54f5-4035-9c3f-d0e582592155"
         transform="translate(-148.962,-130.234)">
        <g
           transform="translate(170.27,134.765)"
           id="g4384">
          <path
             d="m 6.5625,-2.296875 c 0.171875,0 0.359375,0 0.359375,-0.203125 0,-0.1875 -0.1875,-0.1875 -0.359375,-0.1875 H 1.171875 c -0.171875,0 -0.34375,0 -0.34375,0.1875 0,0.203125 0.171875,0.203125 0.34375,0.203125 z m 0,0"
             id="id-34262d62-9bda-4f56-8be9-6a3c4a142a81" />
        </g>
      </g>
      <g
         fill="#000000"
         fill-opacity="1"
         id="id-d39e5d31-36a6-4153-977b-99624e115908"
         transform="translate(-148.962,-130.234)">
        <g
           transform="translate(178.019,134.765)"
           id="g2047">
          <path
             d="m 0.875,-0.59375 c -0.03125,0.15625 -0.09375,0.390625 -0.09375,0.4375 0,0.171875 0.140625,0.265625 0.296875,0.265625 0.125,0 0.296875,-0.078125 0.375,-0.28125 0,-0.015625 0.125,-0.484375 0.1875,-0.734375 l 0.21875,-0.890625 C 1.90625,-2.03125 1.96875,-2.25 2.03125,-2.46875 c 0.03125,-0.171875 0.109375,-0.46875 0.125,-0.5 0.140625,-0.3125 0.671875,-1.21875 1.625,-1.21875 0.453125,0 0.53125,0.375 0.53125,0.703125 0,0.25 -0.0625,0.53125 -0.140625,0.828125 L 3.890625,-1.5 3.6875,-0.75 c -0.03125,0.203125 -0.125,0.546875 -0.125,0.59375 0,0.171875 0.140625,0.265625 0.28125,0.265625 0.3125,0 0.375,-0.25 0.453125,-0.5625 0.140625,-0.5625 0.515625,-2.015625 0.59375,-2.40625 0.03125,-0.125 0.5625,-1.328125 1.65625,-1.328125 0.421875,0 0.53125,0.34375 0.53125,0.703125 0,0.5625 -0.421875,1.703125 -0.625,2.234375 -0.078125,0.234375 -0.125,0.34375 -0.125,0.546875 0,0.46875 0.34375,0.8125 0.8125,0.8125 0.9375,0 1.3125,-1.453125 1.3125,-1.53125 0,-0.109375 -0.09375,-0.109375 -0.125,-0.109375 -0.09375,0 -0.09375,0.03125 -0.140625,0.1875 -0.15625,0.53125 -0.46875,1.234375 -1.015625,1.234375 -0.171875,0 -0.25,-0.09375 -0.25,-0.328125 0,-0.25 0.09375,-0.484375 0.1875,-0.703125 0.1875,-0.53125 0.609375,-1.625 0.609375,-2.203125 0,-0.640625 -0.40625,-1.0625 -1.15625,-1.0625 -0.734375,0 -1.25,0.4375 -1.625,0.96875 0,-0.125 -0.03125,-0.46875 -0.3125,-0.703125 -0.25,-0.21875 -0.5625,-0.265625 -0.8125,-0.265625 -0.90625,0 -1.390625,0.640625 -1.5625,0.875 -0.046875,-0.578125 -0.46875,-0.875 -0.921875,-0.875 -0.453125,0 -0.640625,0.390625 -0.734375,0.5625 -0.171875,0.359375 -0.296875,0.9375 -0.296875,0.96875 0,0.109375 0.09375,0.109375 0.109375,0.109375 0.109375,0 0.109375,-0.015625 0.171875,-0.234375 0.171875,-0.703125 0.375,-1.1875 0.734375,-1.1875 0.15625,0 0.296875,0.078125 0.296875,0.453125 0,0.21875 -0.03125,0.328125 -0.15625,0.84375 z m 0,0"
             id="id-6b6965b0-7437-4177-ac1c-cf187c2d9be5" />
        </g>
      </g>
      <g
         fill="#000000"
         fill-opacity="1"
         id="id-946069a5-6027-455b-b3a9-213641a4a728"
         transform="translate(-148.962,-130.234)">
        <g
           transform="translate(186.766,134.765)"
           id="g3544">
          <path
             d="m 2.546875,-1.890625 c -0.875,0 -0.875,-0.671875 -0.875,-1.125 0,-0.4375 0,-1.109375 0.875,-1.109375 0.875,0 0.875,0.671875 0.875,1.109375 0,0.453125 0,1.125 -0.875,1.125 z m -1.21875,0.09375 c 0.453125,0.234375 0.96875,0.265625 1.21875,0.265625 1.4375,0 1.984375,-0.78125 1.984375,-1.484375 0,-0.46875 -0.25,-0.796875 -0.40625,-0.953125 0.296875,-0.15625 0.515625,-0.171875 0.625,-0.1875 -0.03125,0.046875 -0.046875,0.140625 -0.046875,0.203125 0,0.25 0.171875,0.421875 0.4375,0.421875 0.25,0 0.421875,-0.1875 0.421875,-0.421875 0,-0.234375 -0.171875,-0.578125 -0.625,-0.578125 -0.15625,0 -0.625,0.03125 -1.0625,0.375 -0.171875,-0.125 -0.59375,-0.328125 -1.328125,-0.328125 -1.4375,0 -1.984375,0.78125 -1.984375,1.46875 0,0.40625 0.1875,0.828125 0.515625,1.046875 -0.28125,0.359375 -0.34375,0.6875 -0.34375,0.890625 0,0.15625 0.046875,0.640625 0.4375,0.953125 C 1.046875,-0.09375 0.3125,0.125 0.3125,0.75 0.3125,1.25 0.875,2 2.859375,2 4.625,2 5.40625,1.421875 5.40625,0.71875 c 0,-0.296875 -0.078125,-0.921875 -0.75,-1.265625 -0.5625,-0.28125 -1.15625,-0.28125 -2.109375,-0.28125 -0.265625,0 -0.71875,0 -0.765625,-0.015625 -0.453125,-0.0625 -0.5625,-0.4375 -0.5625,-0.625 0,-0.09375 0.046875,-0.25 0.109375,-0.328125 z M 1.9375,0.125 h 1.171875 c 0.3125,0 1.4375,0 1.4375,0.625 0,0.359375 -0.390625,0.890625 -1.6875,0.890625 -1.1875,0 -1.6875,-0.453125 -1.6875,-0.90625 C 1.171875,0.125 1.796875,0.125 1.9375,0.125 Z m 0,0"
             id="id-17855903-dfd9-49f2-af45-761780c74931" />
        </g>
      </g>
    </g>
  </g>
  <g
     inkscape:label="Layer 1"
     inkscape:groupmode="layer"
     id="layer1">
    <path
       style="fill:#000000;stroke:#000000;stroke-width:0.396875;stroke-linecap:square;stroke-dasharray:none;marker-end:url(#marker3);paint-order:fill markers stroke"
       d="M 16.137729,82.856065 V 33.571429"
       id="path2"
       sodipodi:nodetypes="cc" />
    <path
       style="fill:#000000;fill-opacity:1;stroke:#000000;stroke-width:0.264583;stroke-linecap:square;stroke-linejoin:round;stroke-miterlimit:3.5;stroke-dasharray:none;stroke-dashoffset:0;stroke-opacity:1;marker-end:url(#DartArrow);paint-order:fill markers stroke"
       d="m 33.360984,50.854982 c 0,-2.319649 0,-4.639302 0,-6.958951"
       id="path34"
       inkscape:path-effect="#path-effect34"
       inkscape:original-d="m 33.360984,50.854982 c 0,-2.319649 0,-4.639302 0,-6.958951" />
    <g
       transform="matrix(0.352778 0 0 0.352778 29.0372 46.0858)"
       ns1:version="1.9.0"
       ns1:texconverter="pdflatex"
       ns1:pdfconverter="inkscape"
       ns1:text="$v_{o}$"
       ns1:preamble="/Users/junseo/Library/Application Support/org.inkscape.Inkscape/config/inkscape/extensions/textext/default_packages.tex"
       ns1:scale="1.0"
       ns1:alignment="middle center"
       ns1:stroke-to-path="0"
       ns1:inkscapeversion="1.3"
       id="g8534"
       ns1:jacobian_sqrt="0.352778">
      <defs
         id="id-1f7cf537-3e8a-48ae-aa3d-7cb0921b8cb0">
        <g
           id="id-f96d4c4c-cf83-4069-8964-541b86739671">
          <g
             id="id-32211516-b4d3-49ba-966c-c292719dd39f">
            <path
               d="m 4.671875,-3.703125 c 0,-0.546875 -0.265625,-0.703125 -0.4375,-0.703125 -0.25,0 -0.5,0.265625 -0.5,0.484375 0,0.125 0.046875,0.1875 0.15625,0.296875 0.21875,0.203125 0.34375,0.453125 0.34375,0.8125 0,0.421875 -0.609375,2.703125 -1.765625,2.703125 -0.515625,0 -0.75,-0.34375 -0.75,-0.875 0,-0.546875 0.28125,-1.28125 0.578125,-2.109375 0.078125,-0.171875 0.125,-0.3125 0.125,-0.5 0,-0.4375 -0.3125,-0.8125 -0.8125,-0.8125 -0.9375,0 -1.3125,1.453125 -1.3125,1.53125 0,0.109375 0.09375,0.109375 0.109375,0.109375 0.109375,0 0.109375,-0.03125 0.15625,-0.1875 0.296875,-1 0.71875,-1.234375 1.015625,-1.234375 0.078125,0 0.25,0 0.25,0.3125 0,0.25 -0.109375,0.53125 -0.171875,0.703125 -0.4375,1.15625 -0.5625,1.609375 -0.5625,2.046875 0,1.078125 0.875,1.234375 1.328125,1.234375 1.671875,0 2.25,-3.296875 2.25,-3.8125 z m 0,0"
               id="id-e8f7b2a7-127f-4453-96e3-ae0062a14e7d" />
          </g>
          <g
             id="id-6aec0f6d-66e3-49e8-9575-b5032db7ff00">
            <path
               d="m 3.703125,-1.859375 c 0,-0.765625 -0.578125,-1.21875 -1.265625,-1.21875 -1.03125,0 -2,0.96875 -2,1.921875 0,0.703125 0.5,1.21875 1.265625,1.21875 1,0 2,-0.90625 2,-1.921875 z m -2,1.734375 c -0.34375,0 -0.6875,-0.21875 -0.6875,-0.78125 0,-0.28125 0.125,-0.96875 0.40625,-1.359375 C 1.71875,-2.703125 2.125,-2.875 2.4375,-2.875 c 0.375,0 0.6875,0.25 0.6875,0.765625 C 3.125,-1.9375 3.046875,-1.25 2.734375,-0.765625 2.46875,-0.34375 2.0625,-0.125 1.703125,-0.125 Z m 0,0"
               id="id-83b9f366-27f1-46a3-9bb2-44faec7cc294" />
          </g>
        </g>
      </defs>
      <g
         fill="#000000"
         fill-opacity="1"
         id="id-4ee677d9-cdf8-4302-a255-1941abde44e8"
         transform="translate(-149.009, -130.359)">
        <g
           transform="translate(148.712, 134.765)"
           id="g4129">
          <path
             d="m 4.671875,-3.703125 c 0,-0.546875 -0.265625,-0.703125 -0.4375,-0.703125 -0.25,0 -0.5,0.265625 -0.5,0.484375 0,0.125 0.046875,0.1875 0.15625,0.296875 0.21875,0.203125 0.34375,0.453125 0.34375,0.8125 0,0.421875 -0.609375,2.703125 -1.765625,2.703125 -0.515625,0 -0.75,-0.34375 -0.75,-0.875 0,-0.546875 0.28125,-1.28125 0.578125,-2.109375 0.078125,-0.171875 0.125,-0.3125 0.125,-0.5 0,-0.4375 -0.3125,-0.8125 -0.8125,-0.8125 -0.9375,0 -1.3125,1.453125 -1.3125,1.53125 0,0.109375 0.09375,0.109375 0.109375,0.109375 0.109375,0 0.109375,-0.03125 0.15625,-0.1875 0.296875,-1 0.71875,-1.234375 1.015625,-1.234375 0.078125,0 0.25,0 0.25,0.3125 0,0.25 -0.109375,0.53125 -0.171875,0.703125 -0.4375,1.15625 -0.5625,1.609375 -0.5625,2.046875 0,1.078125 0.875,1.234375 1.328125,1.234375 1.671875,0 2.25,-3.296875 2.25,-3.8125 z m 0,0"
             id="id-85116711-eeb0-46ab-a341-0a26e03291d8" />
        </g>
      </g>
      <g
         fill="#000000"
         fill-opacity="1"
         id="id-11bad002-6c39-4a02-96f0-c35cd3bb9fe4"
         transform="translate(-149.009, -130.359)">
        <g
           transform="translate(153.541, 136.259)"
           id="g3361">
          <path
             d="m 3.703125,-1.859375 c 0,-0.765625 -0.578125,-1.21875 -1.265625,-1.21875 -1.03125,0 -2,0.96875 -2,1.921875 0,0.703125 0.5,1.21875 1.265625,1.21875 1,0 2,-0.90625 2,-1.921875 z m -2,1.734375 c -0.34375,0 -0.6875,-0.21875 -0.6875,-0.78125 0,-0.28125 0.125,-0.96875 0.40625,-1.359375 C 1.71875,-2.703125 2.125,-2.875 2.4375,-2.875 c 0.375,0 0.6875,0.25 0.6875,0.765625 C 3.125,-1.9375 3.046875,-1.25 2.734375,-0.765625 2.46875,-0.34375 2.0625,-0.125 1.703125,-0.125 Z m 0,0"
             id="id-6ba52afc-44de-476f-8af3-ea963fe3891c" />
        </g>
      </g>
    </g>
  </g>
</svg>
