<?xml version="1.0" encoding="UTF-8" standalone="no"?>
<!-- Created with Inkscape (http://www.inkscape.org/) -->

<svg
   width="793.70081"
   height="559.37006"
   viewBox="0 0 209.99998 147.99998"
   version="1.1"
   id="svg1"
   inkscape:version="1.3 (0e150ed, 2023-07-21)"
   sodipodi:docname="fig1_16.svg"
   inkscape:export-filename="fig1_16.png"
   inkscape:export-xdpi="1024"
   inkscape:export-ydpi="1024"
   xmlns:inkscape="http://www.inkscape.org/namespaces/inkscape"
   xmlns:sodipodi="http://sodipodi.sourceforge.net/DTD/sodipodi-0.dtd"
   xmlns="http://www.w3.org/2000/svg"
   xmlns:svg="http://www.w3.org/2000/svg"
   xmlns:ns1="http://www.iki.fi/pav/software/textext/">
  <sodipodi:namedview
     id="namedview1"
     pagecolor="#282a36"
     bordercolor="#f8f8f2"
     borderopacity="1"
     inkscape:showpageshadow="true"
     inkscape:pageopacity="0"
     inkscape:pagecheckerboard="false"
     inkscape:deskcolor="#44475a"
     inkscape:document-units="px"
     inkscape:zoom="2.1553196"
     inkscape:cx="358.6475"
     inkscape:cy="254.7186"
     inkscape:window-width="1368"
     inkscape:window-height="891"
     inkscape:window-x="109"
     inkscape:window-y="37"
     inkscape:window-maximized="0"
     inkscape:current-layer="layer1"
     showguides="true"
     labelstyle="default"
     shape-rendering="auto"
     showgrid="false"
     showborder="true"
     borderlayer="true"
     inkscape:clip-to-page="false"
     inkscape:export-bgcolor="#00000000" />
  <defs
     id="defs1">
    <inkscape:path-effect
       effect="bspline"
       id="path-effect46"
       is_visible="true"
       lpeversion="1.3"
       weight="33.333333"
       steps="2"
       helper_size="0"
       apply_no_weight="true"
       apply_with_weight="true"
       only_selected="false"
       uniform="false" />
    <inkscape:path-effect
       effect="bspline"
       id="path-effect43"
       is_visible="true"
       lpeversion="1.3"
       weight="33.333333"
       steps="2"
       helper_size="0"
       apply_no_weight="true"
       apply_with_weight="true"
       only_selected="false"
       uniform="false" />
    <inkscape:path-effect
       effect="bspline"
       id="path-effect36"
       is_visible="true"
       lpeversion="1.3"
       weight="33.333333"
       steps="2"
       helper_size="0"
       apply_no_weight="true"
       apply_with_weight="true"
       only_selected="false"
       uniform="false" />
    <marker
       style="overflow:visible"
       id="DartArrow"
       refX="0"
       refY="0"
       orient="auto-start-reverse"
       inkscape:stockid="Dart arrow"
       markerWidth="0.75"
       markerHeight="0.75"
       viewBox="0 0 1 1"
       inkscape:isstock="true"
       inkscape:collect="always"
       preserveAspectRatio="xMidYMid">
      <path
         style="fill:context-stroke;fill-rule:evenodd;stroke:none"
         d="M 0,0 5,-5 -12.5,0 5,5 Z"
         transform="scale(-0.5)"
         id="path6" />
    </marker>
    <inkscape:path-effect
       effect="bspline"
       id="path-effect35"
       is_visible="true"
       lpeversion="1.3"
       weight="33.333333"
       steps="2"
       helper_size="0"
       apply_no_weight="true"
       apply_with_weight="true"
       only_selected="false"
       uniform="false" />
    <inkscape:path-effect
       effect="bspline"
       id="path-effect34"
       is_visible="true"
       lpeversion="1.3"
       weight="33.333333"
       steps="2"
       helper_size="0"
       apply_no_weight="true"
       apply_with_weight="true"
       only_selected="false"
       uniform="false" />
    <inkscape:path-effect
       effect="bspline"
       id="path-effect31"
       is_visible="true"
       lpeversion="1.3"
       weight="33.333333"
       steps="2"
       helper_size="0"
       apply_no_weight="true"
       apply_with_weight="true"
       only_selected="false"
       uniform="false" />
    <inkscape:path-effect
       effect="bspline"
       id="path-effect30"
       is_visible="true"
       lpeversion="1.3"
       weight="33.333333"
       steps="2"
       helper_size="0"
       apply_no_weight="true"
       apply_with_weight="true"
       only_selected="false"
       uniform="false" />
    <inkscape:path-effect
       effect="bspline"
       id="path-effect7"
       is_visible="true"
       lpeversion="1.3"
       weight="33.333333"
       steps="2"
       helper_size="0"
       apply_no_weight="true"
       apply_with_weight="true"
       only_selected="false"
       uniform="false" />
    <inkscape:path-effect
       effect="bspline"
       id="path-effect5"
       is_visible="true"
       lpeversion="1.3"
       weight="33.333333"
       steps="2"
       helper_size="0"
       apply_no_weight="true"
       apply_with_weight="true"
       only_selected="false"
       uniform="false" />
    <marker
       style="overflow:visible"
       id="marker3"
       refX="0"
       refY="0"
       orient="auto-start-reverse"
       inkscape:stockid="Dart arrow"
       markerWidth="0.75"
       markerHeight="0.75"
       viewBox="0 0 1 1"
       inkscape:isstock="true"
       inkscape:collect="always"
       preserveAspectRatio="xMidYMid">
      <path
         style="fill:context-stroke;fill-rule:evenodd;stroke:none"
         d="M 0,0 5,-5 -12.5,0 5,5 Z"
         transform="scale(-0.5)"
         id="path3" />
    </marker>
    <inkscape:perspective
       sodipodi:type="inkscape:persp3d"
       inkscape:vp_x="49.143397 : 120.52759 : 1"
       inkscape:vp_y="0 : 999.99973 : 0"
       inkscape:vp_z="259.14341 : 120.52759 : 1"
       inkscape:persp3d-origin="154.14342 : 71.027599 : 1"
       id="perspective1" />
    <marker
       style="overflow:visible"
       id="DartArrow-4"
       refX="0"
       refY="0"
       orient="auto-start-reverse"
       inkscape:stockid="Dart arrow"
       markerWidth="0.75"
       markerHeight="0.75"
       viewBox="0 0 1 1"
       inkscape:isstock="true"
       inkscape:collect="always"
       preserveAspectRatio="xMidYMid">
      <path
         style="fill:context-stroke;fill-rule:evenodd;stroke:none"
         d="M 0,0 5,-5 -12.5,0 5,5 Z"
         transform="scale(-0.5)"
         id="path6-5" />
    </marker>
    <marker
       style="overflow:visible"
       id="DartArrow-5"
       refX="0"
       refY="0"
       orient="auto-start-reverse"
       inkscape:stockid="Dart arrow"
       markerWidth="0.75"
       markerHeight="0.75"
       viewBox="0 0 1 1"
       inkscape:isstock="true"
       inkscape:collect="always"
       preserveAspectRatio="xMidYMid">
      <path
         style="fill:context-stroke;fill-rule:evenodd;stroke:none"
         d="M 0,0 5,-5 -12.5,0 5,5 Z"
         transform="scale(-0.5)"
         id="path6-56" />
    </marker>
  </defs>
  <g
     inkscape:label="Layer 1"
     inkscape:groupmode="layer"
     id="layer1"
     transform="translate(-15.4763,-47.4852)">
    <g
       transform="matrix(0.529167,0,0,0.6199335,107.15883,76.414544)"
       ns1:version="1.9.0"
       ns1:texconverter="pdflatex"
       ns1:pdfconverter="inkscape"
       ns1:text="$y$"
       ns1:preamble="/Users/junseo/Library/Application Support/org.inkscape.Inkscape/config/inkscape/extensions/textext/default_packages.tex"
       ns1:scale="1.5"
       ns1:alignment="middle center"
       ns1:stroke-to-path="0"
       ns1:inkscapeversion="1.3"
       id="y"
       ns1:jacobian_sqrt="0.529167"
       inkscape:label="y"
       style="fill:#f8f8f2">
      <defs
         id="id-cc9efbcb-adc0-4ab5-a4c6-646d9ad6bdec">
        <g
           id="id-1249559c-a4ee-473f-83c0-548a62004567">
          <g
             id="id-e92133ba-8b43-44d0-8bd9-2d52a6f3adfb">
            <path
               d="m 4.84375,-3.796875 c 0.046875,-0.140625 0.046875,-0.15625 0.046875,-0.234375 0,-0.171875 -0.140625,-0.265625 -0.296875,-0.265625 -0.09375,0 -0.25,0.0625 -0.34375,0.203125 -0.015625,0.0625 -0.109375,0.359375 -0.140625,0.546875 -0.078125,0.25 -0.140625,0.53125 -0.203125,0.796875 l -0.453125,1.796875 c -0.03125,0.140625 -0.46875,0.84375 -1.125,0.84375 -0.5,0 -0.609375,-0.4375 -0.609375,-0.8125 C 1.71875,-1.375 1.890625,-2 2.21875,-2.875 2.375,-3.28125 2.421875,-3.390625 2.421875,-3.59375 c 0,-0.4375 -0.3125,-0.8125 -0.8125,-0.8125 -0.953125,0 -1.3125,1.453125 -1.3125,1.53125 0,0.109375 0.09375,0.109375 0.109375,0.109375 0.109375,0 0.109375,-0.03125 0.15625,-0.1875 0.28125,-0.9375 0.671875,-1.234375 1.015625,-1.234375 0.078125,0 0.25,0 0.25,0.3125 0,0.25 -0.109375,0.515625 -0.171875,0.703125 -0.40625,1.0625 -0.578125,1.625 -0.578125,2.09375 0,0.890625 0.625,1.1875 1.21875,1.1875 0.390625,0 0.71875,-0.171875 1,-0.453125 -0.125,0.515625 -0.25,1.015625 -0.640625,1.546875 -0.265625,0.328125 -0.640625,0.625 -1.09375,0.625 -0.140625,0 -0.59375,-0.03125 -0.765625,-0.421875 0.15625,0 0.296875,0 0.421875,-0.125 C 1.328125,1.203125 1.421875,1.0625 1.421875,0.875 1.421875,0.5625 1.15625,0.53125 1.0625,0.53125 0.828125,0.53125 0.5,0.6875 0.5,1.171875 c 0,0.5 0.4375,0.875 1.0625,0.875 1.015625,0 2.046875,-0.90625 2.328125,-2.03125 z m 0,0"
               id="id-163971dc-3eb4-4ae0-a87c-dcbcaed5fffe" />
          </g>
        </g>
      </defs>
      <g
         fill="#000000"
         fill-opacity="1"
         id="id-d116003d-e01a-492c-8256-02c184ce261a"
         transform="translate(-149.009,-130.359)"
         style="fill:#f8f8f2">
        <g
           transform="translate(148.712,134.765)"
           id="g3836"
           style="fill:#f8f8f2">
          <path
             d="m 4.84375,-3.796875 c 0.046875,-0.140625 0.046875,-0.15625 0.046875,-0.234375 0,-0.171875 -0.140625,-0.265625 -0.296875,-0.265625 -0.09375,0 -0.25,0.0625 -0.34375,0.203125 -0.015625,0.0625 -0.109375,0.359375 -0.140625,0.546875 -0.078125,0.25 -0.140625,0.53125 -0.203125,0.796875 l -0.453125,1.796875 c -0.03125,0.140625 -0.46875,0.84375 -1.125,0.84375 -0.5,0 -0.609375,-0.4375 -0.609375,-0.8125 C 1.71875,-1.375 1.890625,-2 2.21875,-2.875 2.375,-3.28125 2.421875,-3.390625 2.421875,-3.59375 c 0,-0.4375 -0.3125,-0.8125 -0.8125,-0.8125 -0.953125,0 -1.3125,1.453125 -1.3125,1.53125 0,0.109375 0.09375,0.109375 0.109375,0.109375 0.109375,0 0.109375,-0.03125 0.15625,-0.1875 0.28125,-0.9375 0.671875,-1.234375 1.015625,-1.234375 0.078125,0 0.25,0 0.25,0.3125 0,0.25 -0.109375,0.515625 -0.171875,0.703125 -0.40625,1.0625 -0.578125,1.625 -0.578125,2.09375 0,0.890625 0.625,1.1875 1.21875,1.1875 0.390625,0 0.71875,-0.171875 1,-0.453125 -0.125,0.515625 -0.25,1.015625 -0.640625,1.546875 -0.265625,0.328125 -0.640625,0.625 -1.09375,0.625 -0.140625,0 -0.59375,-0.03125 -0.765625,-0.421875 0.15625,0 0.296875,0 0.421875,-0.125 C 1.328125,1.203125 1.421875,1.0625 1.421875,0.875 1.421875,0.5625 1.15625,0.53125 1.0625,0.53125 0.828125,0.53125 0.5,0.6875 0.5,1.171875 c 0,0.5 0.4375,0.875 1.0625,0.875 1.015625,0 2.046875,-0.90625 2.328125,-2.03125 z m 0,0"
             id="id-78149036-f240-48ff-a5b4-4f6bfe369885"
             style="fill:#f8f8f2" />
        </g>
      </g>
    </g>
    <g
       transform="matrix(0.58558526,0,0,0.52028161,144.53607,114.92882)"
       ns1:version="1.9.0"
       ns1:texconverter="pdflatex"
       ns1:pdfconverter="inkscape"
       ns1:text="$x$"
       ns1:preamble="/Users/junseo/Library/Application Support/org.inkscape.Inkscape/config/inkscape/extensions/textext/default_packages.tex"
       ns1:scale="1.5"
       ns1:alignment="middle center"
       ns1:stroke-to-path="0"
       ns1:inkscapeversion="1.3"
       id="x"
       ns1:jacobian_sqrt="0.529167"
       inkscape:label="x"
       style="fill:#f8f8f2">
      <defs
         id="id-61dbad21-a383-44c4-8779-6de5bbd06219">
        <g
           id="id-922fda8a-050f-43bd-9538-107d399d330e">
          <g
             id="id-b4559ce9-db7c-4935-8065-9bcad956f8b8">
            <path
               d="M 3.328125,-3.015625 C 3.390625,-3.265625 3.625,-4.1875 4.3125,-4.1875 c 0.046875,0 0.296875,0 0.5,0.125 C 4.53125,-4 4.34375,-3.765625 4.34375,-3.515625 c 0,0.15625 0.109375,0.34375 0.375,0.34375 0.21875,0 0.53125,-0.171875 0.53125,-0.578125 0,-0.515625 -0.578125,-0.65625 -0.921875,-0.65625 -0.578125,0 -0.921875,0.53125 -1.046875,0.75 -0.25,-0.65625 -0.78125,-0.75 -1.078125,-0.75 -1.03125,0 -1.609375,1.28125 -1.609375,1.53125 0,0.109375 0.109375,0.109375 0.125,0.109375 0.078125,0 0.109375,-0.03125 0.125,-0.109375 0.34375,-1.0625 1,-1.3125 1.34375,-1.3125 0.1875,0 0.53125,0.09375 0.53125,0.671875 0,0.3125 -0.171875,0.96875 -0.53125,2.375 -0.15625,0.609375 -0.515625,1.03125 -0.953125,1.03125 -0.0625,0 -0.28125,0 -0.5,-0.125 0.25,-0.0625 0.46875,-0.265625 0.46875,-0.546875 0,-0.265625 -0.21875,-0.34375 -0.359375,-0.34375 -0.3125,0 -0.546875,0.25 -0.546875,0.578125 0,0.453125 0.484375,0.65625 0.921875,0.65625 0.671875,0 1.03125,-0.703125 1.046875,-0.75 0.125,0.359375 0.484375,0.75 1.078125,0.75 1.03125,0 1.59375,-1.28125 1.59375,-1.53125 0,-0.109375 -0.078125,-0.109375 -0.109375,-0.109375 -0.09375,0 -0.109375,0.046875 -0.140625,0.109375 -0.328125,1.078125 -1,1.3125 -1.3125,1.3125 -0.390625,0 -0.546875,-0.3125 -0.546875,-0.65625 0,-0.21875 0.046875,-0.4375 0.15625,-0.875 z m 0,0"
               id="id-762d44fb-d9bb-4ede-a60c-74161e3a8919" />
          </g>
        </g>
      </defs>
      <g
         fill="#000000"
         fill-opacity="1"
         id="id-59431d4c-b6f4-42f3-a483-9cc2266c1a23"
         transform="translate(-149.009,-130.359)"
         style="fill:#f8f8f2">
        <g
           transform="translate(148.712,134.765)"
           id="g9476"
           style="fill:#f8f8f2">
          <path
             d="M 3.328125,-3.015625 C 3.390625,-3.265625 3.625,-4.1875 4.3125,-4.1875 c 0.046875,0 0.296875,0 0.5,0.125 C 4.53125,-4 4.34375,-3.765625 4.34375,-3.515625 c 0,0.15625 0.109375,0.34375 0.375,0.34375 0.21875,0 0.53125,-0.171875 0.53125,-0.578125 0,-0.515625 -0.578125,-0.65625 -0.921875,-0.65625 -0.578125,0 -0.921875,0.53125 -1.046875,0.75 -0.25,-0.65625 -0.78125,-0.75 -1.078125,-0.75 -1.03125,0 -1.609375,1.28125 -1.609375,1.53125 0,0.109375 0.109375,0.109375 0.125,0.109375 0.078125,0 0.109375,-0.03125 0.125,-0.109375 0.34375,-1.0625 1,-1.3125 1.34375,-1.3125 0.1875,0 0.53125,0.09375 0.53125,0.671875 0,0.3125 -0.171875,0.96875 -0.53125,2.375 -0.15625,0.609375 -0.515625,1.03125 -0.953125,1.03125 -0.0625,0 -0.28125,0 -0.5,-0.125 0.25,-0.0625 0.46875,-0.265625 0.46875,-0.546875 0,-0.265625 -0.21875,-0.34375 -0.359375,-0.34375 -0.3125,0 -0.546875,0.25 -0.546875,0.578125 0,0.453125 0.484375,0.65625 0.921875,0.65625 0.671875,0 1.03125,-0.703125 1.046875,-0.75 0.125,0.359375 0.484375,0.75 1.078125,0.75 1.03125,0 1.59375,-1.28125 1.59375,-1.53125 0,-0.109375 -0.078125,-0.109375 -0.109375,-0.109375 -0.09375,0 -0.109375,0.046875 -0.140625,0.109375 -0.328125,1.078125 -1,1.3125 -1.3125,1.3125 -0.390625,0 -0.546875,-0.3125 -0.546875,-0.65625 0,-0.21875 0.046875,-0.4375 0.15625,-0.875 z m 0,0"
             id="id-15ea5632-dd12-4955-9941-b412ada2a5ee"
             style="fill:#f8f8f2" />
        </g>
      </g>
    </g>
    <path
       style="fill:#8be9fd;stroke:#f8f8f2;stroke-width:0.529167;stroke-linecap:round;stroke-dasharray:none;marker-end:url(#marker3);paint-order:fill markers stroke"
       d="m 105.77381,155.59641 -1.2e-4,-73.30718"
       id="yaxis"
       sodipodi:nodetypes="cc"
       inkscape:label="yaxis" />
    <path
       style="fill:#f8f8f2;fill-rule:evenodd;stroke:#f8f8f2;stroke-width:0.529167;stroke-linecap:round;stroke-linejoin:bevel;stroke-dasharray:none;paint-order:fill markers stroke;marker-end:url(#DartArrow)"
       d="M 70.124729,118.69753 H 143.63281"
       id="path4" />
    <path
       style="fill:none;fill-rule:evenodd;stroke:#8be9fd;stroke-width:0.529167;stroke-linecap:round;stroke-linejoin:bevel;stroke-dasharray:none;marker-end:url(#DartArrow);paint-order:fill markers stroke"
       d="m 105.78659,122.05263 -0.0175,14.6836"
       id="path2"
       sodipodi:nodetypes="cc"
       inkscape:transform-center-x="-0.008154"
       inkscape:transform-center-y="10.697486" />
    <circle
       style="fill:none;fill-rule:evenodd;stroke:#8be9fd;stroke-width:0.529167;stroke-linecap:round;stroke-linejoin:bevel;stroke-dasharray:none;paint-order:fill markers stroke"
       id="path1"
       cx="105.77369"
       cy="118.69753"
       r="0.79374993" />
    <path
       style="fill:#f8f8f2;fill-rule:evenodd;stroke:#8be9fd;stroke-width:0.529167;stroke-linecap:round;stroke-linejoin:bevel;stroke-dasharray:none;marker-end:url(#DartArrow);paint-order:fill markers stroke"
       d="m 105.7691,140.7871 v 7.17415"
       id="path5"
       inkscape:transform-center-x="0.00058600005"
       inkscape:transform-center-y="25.677231" />
    <path
       style="fill:none;fill-rule:evenodd;stroke:#8be9fd;stroke-width:0.529167;stroke-linecap:round;stroke-linejoin:bevel;stroke-dasharray:none;marker-end:url(#DartArrow-4);paint-order:fill markers stroke"
       d="m 109.12537,118.68004 14.6836,0.0175"
       id="path2-5"
       sodipodi:nodetypes="cc"
       inkscape:transform-center-x="-10.697484"
       inkscape:transform-center-y="-0.008154" />
    <path
       style="fill:#f8f8f2;fill-rule:evenodd;stroke:#8be9fd;stroke-width:0.529167;stroke-linecap:round;stroke-linejoin:bevel;stroke-dasharray:none;marker-end:url(#DartArrow-4);paint-order:fill markers stroke"
       d="m 127.85984,118.69753 h 7.17415"
       id="path5-3"
       inkscape:transform-center-x="-25.677229"
       inkscape:transform-center-y="0.00058600005" />
    <path
       style="fill:none;fill-rule:evenodd;stroke:#8be9fd;stroke-width:0.529167;stroke-linecap:round;stroke-linejoin:bevel;stroke-dasharray:none;marker-end:url(#DartArrow-5);paint-order:fill markers stroke"
       d="m 102.414,118.71385 -14.6836,-0.0175"
       id="path2-6"
       sodipodi:nodetypes="cc"
       inkscape:transform-center-x="10.697486"
       inkscape:transform-center-y="0.008156" />
    <path
       style="fill:#f8f8f2;fill-rule:evenodd;stroke:#8be9fd;stroke-width:0.529167;stroke-linecap:round;stroke-linejoin:bevel;stroke-dasharray:none;marker-end:url(#DartArrow-5);paint-order:fill markers stroke"
       d="M 83.67953,118.69636 H 76.50538"
       id="path5-8"
       inkscape:transform-center-x="25.677231"
       inkscape:transform-center-y="-0.00058400005" />
    <path
       style="fill:none;fill-rule:evenodd;stroke:#8be9fd;stroke-width:0.529167;stroke-linecap:round;stroke-linejoin:bevel;stroke-dasharray:none;marker-end:url(#DartArrow-5);paint-order:fill markers stroke"
       d="m 105.75278,115.34126 0.0175,-14.6836"
       id="path8"
       sodipodi:nodetypes="cc"
       inkscape:transform-center-x="0.008156"
       inkscape:transform-center-y="-10.697484" />
    <path
       style="fill:#f8f8f2;fill-rule:evenodd;stroke:#8be9fd;stroke-width:0.529167;stroke-linecap:round;stroke-linejoin:bevel;stroke-dasharray:none;marker-end:url(#DartArrow-5);paint-order:fill markers stroke"
       d="m 105.77027,96.606788 v -7.17415"
       id="path9"
       inkscape:transform-center-x="-0.00058400005"
       inkscape:transform-center-y="-25.677231" />
    <path
       style="fill:none;fill-rule:evenodd;stroke:#8be9fd;stroke-width:0.529167;stroke-linecap:round;stroke-linejoin:bevel;stroke-dasharray:none;marker-end:url(#DartArrow-5);paint-order:fill markers stroke"
       d="m 108.13056,116.31216 10.39525,-10.3705"
       id="path10"
       sodipodi:nodetypes="cc"
       inkscape:transform-center-x="-7.558499"
       inkscape:transform-center-y="-7.570034" />
    <path
       style="fill:#f8f8f2;fill-rule:evenodd;stroke:#8be9fd;stroke-width:0.529167;stroke-linecap:round;stroke-linejoin:bevel;stroke-dasharray:none;marker-end:url(#DartArrow-5);paint-order:fill markers stroke"
       d="m 121.3902,103.07726 5.07289,-5.072892"
       id="path11"
       inkscape:transform-center-x="-18.156959"
       inkscape:transform-center-y="-18.15613" />
    <path
       style="fill:none;fill-rule:evenodd;stroke:#8be9fd;stroke-width:0.529167;stroke-linecap:round;stroke-linejoin:bevel;stroke-dasharray:none;marker-end:url(#DartArrow-5);paint-order:fill markers stroke"
       d="m 108.15447,121.05782 10.3705,10.39525"
       id="path12"
       sodipodi:nodetypes="cc"
       inkscape:transform-center-x="-7.570034"
       inkscape:transform-center-y="7.558501" />
    <path
       style="fill:#f8f8f2;fill-rule:evenodd;stroke:#8be9fd;stroke-width:0.529167;stroke-linecap:round;stroke-linejoin:bevel;stroke-dasharray:none;marker-end:url(#DartArrow-5);paint-order:fill markers stroke"
       d="m 121.38937,134.31746 5.07289,5.07289"
       id="path13"
       inkscape:transform-center-x="-18.156129"
       inkscape:transform-center-y="18.156961" />
    <path
       style="fill:none;fill-rule:evenodd;stroke:#8be9fd;stroke-width:0.529167;stroke-linecap:round;stroke-linejoin:bevel;stroke-dasharray:none;marker-end:url(#DartArrow-5);paint-order:fill markers stroke"
       d="m 103.40881,121.08173 -10.395254,10.3705"
       id="path14"
       sodipodi:nodetypes="cc"
       inkscape:transform-center-x="7.558503"
       inkscape:transform-center-y="7.570036" />
    <path
       style="fill:#f8f8f2;fill-rule:evenodd;stroke:#8be9fd;stroke-width:0.529167;stroke-linecap:round;stroke-linejoin:bevel;stroke-dasharray:none;marker-end:url(#DartArrow-5);paint-order:fill markers stroke"
       d="m 90.149173,134.31663 -5.072891,5.07289"
       id="path15"
       inkscape:transform-center-x="18.156958"
       inkscape:transform-center-y="18.156131" />
    <path
       style="fill:none;fill-rule:evenodd;stroke:#8be9fd;stroke-width:0.529167;stroke-linecap:round;stroke-linejoin:bevel;stroke-dasharray:none;marker-end:url(#DartArrow-5);paint-order:fill markers stroke"
       d="M 103.3849,116.33607 93.014398,105.94082"
       id="path16"
       sodipodi:nodetypes="cc"
       inkscape:transform-center-x="7.5700375"
       inkscape:transform-center-y="-7.558499" />
    <path
       style="fill:#f8f8f2;fill-rule:evenodd;stroke:#8be9fd;stroke-width:0.529167;stroke-linecap:round;stroke-linejoin:bevel;stroke-dasharray:none;marker-end:url(#DartArrow-5);paint-order:fill markers stroke"
       d="m 90.149999,103.07643 -5.07289,-5.072889"
       id="path17"
       inkscape:transform-center-x="18.156132"
       inkscape:transform-center-y="-18.156958" />
    <path
       style="fill:none;fill-rule:evenodd;stroke:#8be9fd;stroke-width:0.529167;stroke-linecap:round;stroke-linejoin:bevel;stroke-dasharray:none;marker-end:url(#DartArrow-5);paint-order:fill markers stroke"
       d="M 104.4699,115.60316 98.866894,102.03058"
       id="path18"
       sodipodi:nodetypes="cc"
       inkscape:transform-center-x="4.1012895"
       inkscape:transform-center-y="-9.880074" />
    <path
       style="fill:#f8f8f2;fill-rule:evenodd;stroke:#8be9fd;stroke-width:0.529167;stroke-linecap:round;stroke-linejoin:bevel;stroke-dasharray:none;marker-end:url(#DartArrow-5);paint-order:fill markers stroke"
       d="M 97.316689,98.288075 94.57126,91.660026"
       id="path19"
       inkscape:transform-center-x="9.8257117"
       inkscape:transform-center-y="-23.722893" />
    <path
       style="fill:none;fill-rule:evenodd;stroke:#8be9fd;stroke-width:0.529167;stroke-linecap:round;stroke-linejoin:bevel;stroke-dasharray:none;marker-end:url(#DartArrow-5);paint-order:fill markers stroke"
       d="m 107.03824,115.59022 5.63533,-13.55918"
       id="path20"
       sodipodi:nodetypes="cc"
       inkscape:transform-center-x="-4.0862185"
       inkscape:transform-center-y="-9.886314" />
    <path
       style="fill:#f8f8f2;fill-rule:evenodd;stroke:#8be9fd;stroke-width:0.529167;stroke-linecap:round;stroke-linejoin:bevel;stroke-dasharray:none;marker-end:url(#DartArrow-5);paint-order:fill markers stroke"
       d="m 114.22376,98.288522 2.74543,-6.628049"
       id="path21"
       inkscape:transform-center-x="-9.8267884"
       inkscape:transform-center-y="-23.722446" />
    <path
       style="fill:none;fill-rule:evenodd;stroke:#8be9fd;stroke-width:0.529167;stroke-linecap:round;stroke-linejoin:bevel;stroke-dasharray:none;marker-end:url(#DartArrow-5);paint-order:fill markers stroke"
       d="m 108.86348,117.39716 13.57256,-5.603"
       id="path22"
       sodipodi:nodetypes="cc"
       inkscape:transform-center-x="-9.8800735"
       inkscape:transform-center-y="-4.101284" />
    <path
       style="fill:#f8f8f2;fill-rule:evenodd;stroke:#8be9fd;stroke-width:0.529167;stroke-linecap:round;stroke-linejoin:bevel;stroke-dasharray:none;marker-end:url(#DartArrow-5);paint-order:fill markers stroke"
       d="m 126.17856,110.24394 6.62805,-2.74542"
       id="path23"
       inkscape:transform-center-x="-23.722898"
       inkscape:transform-center-y="-9.8257142" />
    <path
       style="fill:none;fill-rule:evenodd;stroke:#8be9fd;stroke-width:0.529167;stroke-linecap:round;stroke-linejoin:bevel;stroke-dasharray:none;marker-end:url(#DartArrow-5);paint-order:fill markers stroke"
       d="m 108.87641,119.9655 13.55917,5.63533"
       id="path24"
       sodipodi:nodetypes="cc"
       inkscape:transform-center-x="-9.886309"
       inkscape:transform-center-y="4.086221" />
    <path
       style="fill:#f8f8f2;fill-rule:evenodd;stroke:#8be9fd;stroke-width:0.529167;stroke-linecap:round;stroke-linejoin:bevel;stroke-dasharray:none;marker-end:url(#DartArrow-5);paint-order:fill markers stroke"
       d="m 126.17812,127.15102 6.62804,2.74543"
       id="path25"
       inkscape:transform-center-x="-23.722453"
       inkscape:transform-center-y="9.8267903" />
    <path
       style="fill:none;fill-rule:evenodd;stroke:#8be9fd;stroke-width:0.529167;stroke-linecap:round;stroke-linejoin:bevel;stroke-dasharray:none;marker-end:url(#DartArrow-5);paint-order:fill markers stroke"
       d="m 107.06947,121.79074 5.603,13.57255"
       id="path26"
       sodipodi:nodetypes="cc"
       inkscape:transform-center-x="-4.101284"
       inkscape:transform-center-y="9.880071" />
    <path
       style="fill:#f8f8f2;fill-rule:evenodd;stroke:#8be9fd;stroke-width:0.529167;stroke-linecap:round;stroke-linejoin:bevel;stroke-dasharray:none;marker-end:url(#DartArrow-5);paint-order:fill markers stroke"
       d="m 114.2227,139.10582 2.74542,6.62805"
       id="path27"
       inkscape:transform-center-x="-9.8257235"
       inkscape:transform-center-y="23.7229" />
    <path
       style="fill:none;fill-rule:evenodd;stroke:#8be9fd;stroke-width:0.529167;stroke-linecap:round;stroke-linejoin:bevel;stroke-dasharray:none;marker-end:url(#DartArrow-5);paint-order:fill markers stroke"
       d="m 104.50113,121.80367 -5.635327,13.55916"
       id="path28"
       sodipodi:nodetypes="cc"
       inkscape:transform-center-x="4.0862195"
       inkscape:transform-center-y="9.886306" />
    <path
       style="fill:#f8f8f2;fill-rule:evenodd;stroke:#8be9fd;stroke-width:0.529167;stroke-linecap:round;stroke-linejoin:bevel;stroke-dasharray:none;marker-end:url(#DartArrow-5);paint-order:fill markers stroke"
       d="m 97.315609,139.10539 -2.745424,6.62804"
       id="path29"
       inkscape:transform-center-x="9.8267887"
       inkscape:transform-center-y="23.722465" />
    <path
       style="fill:none;fill-rule:evenodd;stroke:#8be9fd;stroke-width:0.529167;stroke-linecap:round;stroke-linejoin:bevel;stroke-dasharray:none;marker-end:url(#DartArrow-5);paint-order:fill markers stroke"
       d="m 102.67589,119.99673 -13.572547,5.60299"
       id="path30"
       sodipodi:nodetypes="cc"
       inkscape:transform-center-x="9.8800695"
       inkscape:transform-center-y="4.101281" />
    <path
       style="fill:#f8f8f2;fill-rule:evenodd;stroke:#8be9fd;stroke-width:0.529167;stroke-linecap:round;stroke-linejoin:bevel;stroke-dasharray:none;marker-end:url(#DartArrow-5);paint-order:fill markers stroke"
       d="m 85.360802,127.14996 -6.628043,2.74543"
       id="path31"
       inkscape:transform-center-x="23.722904"
       inkscape:transform-center-y="9.8257305" />
    <path
       style="fill:none;fill-rule:evenodd;stroke:#8be9fd;stroke-width:0.529167;stroke-linecap:round;stroke-linejoin:bevel;stroke-dasharray:none;marker-end:url(#DartArrow-5);paint-order:fill markers stroke"
       d="M 102.66295,117.42839 89.1038,111.79306"
       id="path32"
       sodipodi:nodetypes="cc"
       inkscape:transform-center-x="9.8863115"
       inkscape:transform-center-y="-4.086219" />
    <path
       style="fill:#f8f8f2;fill-rule:evenodd;stroke:#8be9fd;stroke-width:0.529167;stroke-linecap:round;stroke-linejoin:bevel;stroke-dasharray:none;marker-end:url(#DartArrow-5);paint-order:fill markers stroke"
       d="m 85.361241,110.24287 -6.628048,-2.74542"
       id="path33"
       inkscape:transform-center-x="23.722467"
       inkscape:transform-center-y="-9.8267829" />
  </g>
  <g
     inkscape:groupmode="layer"
     id="layer2"
     inkscape:label="Layer 2"
     transform="translate(-15.4763,-47.4852)" />
</svg>
